<svg width="257" height="89" viewBox="0 0 257 89" fill="none" xmlns="http://www.w3.org/2000/svg">
<path opacity="0.935" fill-rule="evenodd" clip-rule="evenodd" d="M83.0174 0C83.3054 0.0115992 83.5908 0.0448968 83.8746 0.0999928C83.8746 29.7309 83.8746 59.3627 83.8746 88.9936C83.5874 89.0106 83.302 88.9936 83.0174 88.9436C82.9745 88.8936 82.9316 88.8436 82.8888 88.7936C82.8313 59.2627 82.8313 29.7309 82.8888 0.199986C82.9505 0.14559 82.9934 0.0788943 83.0174 0Z" fill="#E4B441"/>
<path opacity="0.947" fill-rule="evenodd" clip-rule="evenodd" d="M243.401 0.700002C243.74 0.658905 244.055 0.742199 244.344 0.949984C244.647 1.27006 244.918 1.62004 245.158 1.99991C245.265 2.25759 245.293 2.52417 245.244 2.79985C243.822 4.20455 242.407 5.62115 241 7.04954C240.416 7.18373 240.002 6.93375 239.757 6.2996C239.697 6.05252 239.726 5.81913 239.843 5.59965C241.015 3.94987 242.201 2.31659 243.401 0.700002Z" fill="#E4B441"/>
<path opacity="0.977" fill-rule="evenodd" clip-rule="evenodd" d="M53.8423 7.40974C53.9381 7.53701 53.9948 7.50329 54.0128 7.3085C54.3786 7.21484 54.7482 7.14741 55.1213 7.106C55.2171 7.23327 55.2739 7.19956 55.2919 7.00476C55.5738 6.94897 55.858 6.91526 56.1445 6.90351C56.2105 6.96902 56.2958 7.00273 56.4004 7.00476C56.5308 6.99058 56.6161 6.92305 56.6562 6.80227C56.7983 6.80227 56.9404 6.80227 57.0825 6.80227C57.749 6.9027 58.4311 6.93652 59.1289 6.90351C59.2922 6.93227 59.4343 6.89855 59.5553 6.80227C59.7542 6.80227 59.9532 6.80227 60.1522 6.80227C60.1993 7.01002 60.2846 7.04374 60.408 6.90351C60.4932 6.90351 60.5785 6.90351 60.6638 6.90351C60.674 7.01347 60.7309 7.081 60.8343 7.106C60.9124 7.10165 60.9693 7.06794 61.0048 7.00476C61.4144 7.05477 61.8123 7.15602 62.1986 7.3085C61.4326 8.11543 61.0346 9.12789 61.0048 10.3459C60.1714 10.0467 59.3187 9.87803 58.4468 9.83965C58.4373 9.77719 58.4089 9.72656 58.3615 9.68778C57.7363 9.62025 57.1109 9.62025 56.4856 9.68778C56.4075 9.71593 56.3507 9.76655 56.3151 9.83965C56.1161 9.83965 55.9171 9.83965 55.7182 9.83965C55.6522 9.77415 55.5669 9.74043 55.4624 9.73841C55.3042 9.72221 55.1906 9.78974 55.1213 9.9409C54.6381 10.0084 54.155 10.0759 53.6718 10.1434C53.5627 10.0204 53.4774 10.0541 53.416 10.2446C53.018 10.3459 52.6201 10.4471 52.2222 10.5484C51.9598 10.5159 51.7609 10.6171 51.6253 10.8521C51.3034 10.9589 50.9907 11.0939 50.6874 11.2571C50.4568 11.2743 50.3147 11.4093 50.261 11.6621C50.1937 11.7533 50.1084 11.8208 50.0052 11.8646C49.6853 12.1055 49.6 12.443 49.7494 12.877C49.7884 12.9578 49.8453 12.9916 49.9199 12.9783C50.0539 13.2548 50.2529 13.4405 50.5168 13.5351C52.9394 14.2357 55.3838 14.3706 57.8499 13.9401C59.0955 13.6889 60.1187 12.997 60.9196 11.8646C61.0395 11.8167 61.0963 11.7154 61.0901 11.5608C61.0901 11.5271 61.0901 11.4933 61.0901 11.4596C61.3776 12.0217 61.7186 12.5449 62.1133 13.0289C62.4882 13.2848 62.8576 13.5379 63.2218 13.7883C63.1082 13.822 62.9944 13.8558 62.8808 13.8895C62.8863 13.8452 62.8721 13.8113 62.8381 13.7883C62.7173 13.8468 62.6463 13.948 62.6249 14.092C61.7614 14.554 60.9087 15.0434 60.0669 15.5601C57.8375 16.61 55.5352 16.9137 53.1601 16.4713C51.6885 16.1777 50.2389 15.7729 48.8115 15.2563C46.1313 14.263 43.488 13.1493 40.8815 11.9152C37.8622 10.6684 34.7642 9.84148 31.5872 9.43467C31.3813 9.30163 31.1397 9.2341 30.8625 9.23218C30.5852 9.2341 30.3436 9.30163 30.1377 9.43467C28.5194 9.58006 27.0415 10.1875 25.7037 11.2571C25.5735 11.2497 25.4882 11.3172 25.4479 11.4596C25.4479 11.5271 25.4195 11.5608 25.3626 11.5608C24.9728 11.871 24.6175 12.2422 24.2968 12.6746C24.2556 12.7705 24.2414 12.8718 24.2541 12.9783C24.2541 13.0458 24.2258 13.0795 24.1689 13.0795C23.9632 13.0992 23.8779 13.2341 23.9131 13.4845C23.7074 13.5042 23.6221 13.6391 23.6573 13.8895C23.5253 13.922 23.4684 14.0233 23.4867 14.1932C23.2082 14.6863 22.9524 15.1925 22.7193 15.7119C22.5664 15.9069 22.4812 16.1432 22.4635 16.4207C22.2051 17.0352 21.9777 17.6761 21.7814 18.3443C21.7919 18.4061 21.8203 18.4395 21.8666 18.4456C21.7378 19.0915 21.5957 19.7324 21.4403 20.3693C21.3877 20.3804 21.345 20.4138 21.3124 20.4705C21.2545 20.7793 21.1835 21.0831 21.0992 21.3817C21.1098 21.4435 21.1382 21.4769 21.1845 21.483C21.0423 22.2251 20.9003 22.9683 20.7581 23.7104C20.5291 24.085 20.4155 24.5234 20.4171 25.0266C20.4171 25.0944 20.4171 25.1613 20.4171 25.2291C20.2629 25.3729 20.206 25.5754 20.2465 25.8366C20.042 26.8349 19.7862 27.8139 19.4791 28.7727C19.3628 28.9469 19.2775 29.1493 19.2233 29.3802C19.2339 29.4419 19.2623 29.4754 19.3086 29.4814C19.3086 29.5148 19.3086 29.5493 19.3086 29.5827C19.2339 29.5695 19.177 29.6029 19.138 29.6839C19.0397 29.8044 19.0397 29.9057 19.138 29.9877C19.138 30.0211 19.138 30.0555 19.138 30.0889C19.0633 30.0758 19.0065 30.1092 18.9675 30.1902C18.6823 30.9343 18.3981 31.6775 18.1148 32.4176C18.0655 32.7041 17.9518 32.94 17.7737 33.1263C17.637 33.2063 17.5801 33.3409 17.6032 33.5313C17.4712 33.5637 17.4143 33.6649 17.4327 33.835C17.3007 33.8674 17.2438 33.9687 17.2621 34.1388C17.1485 34.1388 17.0916 34.2066 17.0916 34.3413C17.0421 34.5691 16.9285 34.7381 16.7505 34.8475C16.4947 35.0834 16.2673 35.3537 16.0684 35.6575C16.0115 35.7921 15.9262 35.8934 15.8126 35.9612C15.8181 35.9167 15.804 35.8832 15.7699 35.86C15.4353 36.1343 15.08 36.3712 14.7041 36.5687C14.636 36.6153 14.6076 36.6821 14.6188 36.7712C14.2372 36.9676 13.8392 37.1022 13.4251 37.1762C13.3646 37.085 13.2793 37.0506 13.1693 37.0749C13.4121 36.0847 13.3837 35.1057 13.084 34.1388C13.8018 33.8644 14.4555 33.4594 15.0452 32.9238C15.3637 32.7821 15.5627 32.5117 15.642 32.1138C15.7643 31.8557 15.9064 31.6198 16.0684 31.4051C16.3421 31.1601 16.4841 30.8229 16.4947 30.3927C16.4947 30.3592 16.4947 30.3248 16.4947 30.2914C16.5694 30.3046 16.6263 30.2712 16.6653 30.1902C16.7762 29.8935 16.8615 29.5898 16.9211 29.2789C16.9321 29.1048 16.9605 28.9367 17.0063 28.7727C17.1866 28.6431 17.2719 28.4406 17.2621 28.1652C17.9815 25.305 18.7205 22.4539 19.4791 19.6099C19.4317 19.5714 19.4033 19.5208 19.3938 19.4581C19.4789 19.4611 19.5357 19.4105 19.5644 19.3062C19.6716 18.8809 19.7852 18.4598 19.9055 18.0406C19.8949 17.9788 19.8665 17.9454 19.8202 17.9394C19.8202 17.8715 19.8202 17.8047 19.8202 17.7369C19.9639 17.668 20.0491 17.5323 20.076 17.3319C20.0654 17.2701 20.037 17.2367 19.9907 17.2306C19.9907 17.1628 19.9907 17.096 19.9907 17.0281C20.0757 17.0312 20.1326 16.9806 20.1613 16.8763C20.2097 16.6869 20.2666 16.5017 20.3318 16.3194C20.3212 16.2577 20.2928 16.2242 20.2465 16.2182C20.2465 16.1848 20.2465 16.1503 20.2465 16.1169C20.456 15.8822 20.5696 15.5785 20.5876 15.2057C22.1611 10.6065 25.0033 7.78851 29.1145 6.75164C31.4359 6.42431 33.7381 6.59309 36.0212 7.25787C39.1428 8.13345 42.1698 9.3315 45.1023 10.8521C47.4598 9.81586 49.8331 8.82021 52.2222 7.86535C52.7538 7.66529 53.2938 7.51342 53.8423 7.40974Z" fill="#E4B441"/>
<path opacity="0.151" fill-rule="evenodd" clip-rule="evenodd" d="M59.4434 6.69958C59.5905 6.71248 59.7334 6.74578 59.872 6.79958C59.7503 6.89467 59.6075 6.92797 59.4434 6.89957C59.4434 6.83288 59.4434 6.76628 59.4434 6.69958Z" fill="#E4B441"/>
<path opacity="0.973" fill-rule="evenodd" clip-rule="evenodd" d="M66.9775 10.7508C66.7985 11.7176 66.4003 12.5275 65.7838 13.1807C65.0019 13.7402 64.1491 13.9427 63.2257 13.7882C62.8615 13.5378 62.4921 13.2847 62.1172 13.0288C61.7225 12.5447 61.3814 12.0216 61.094 11.4595C61.0306 11.0931 61.0022 10.7219 61.0087 10.3458C61.0385 9.12779 61.4364 8.11532 62.2025 7.30839C62.9848 6.7323 63.8375 6.54671 64.7605 6.75153C66.3636 7.40143 67.1029 8.73454 66.9775 10.7508Z" fill="#C39320"/>
<path opacity="0.51" fill-rule="evenodd" clip-rule="evenodd" d="M59.444 6.69959C59.444 6.76628 59.444 6.83288 59.444 6.89957C58.7425 6.93217 58.0567 6.89877 57.3867 6.79958C58.0689 6.70928 58.7547 6.67599 59.444 6.69959Z" fill="#E4B441"/>
<path opacity="0.557" fill-rule="evenodd" clip-rule="evenodd" d="M56.9577 6.79948C56.9174 6.91878 56.8317 6.98547 56.7005 6.99947C56.5954 6.99747 56.5097 6.96417 56.4434 6.89948C56.6092 6.83448 56.7807 6.80118 56.9577 6.79948Z" fill="#E4B441"/>
<path opacity="0.212" fill-rule="evenodd" clip-rule="evenodd" d="M60.4727 6.79961C60.5675 6.80531 60.653 6.8386 60.7292 6.8996C60.6055 7.03809 60.5199 7.00479 60.4727 6.79961Z" fill="#E4B441"/>
<path opacity="0.396" fill-rule="evenodd" clip-rule="evenodd" d="M60.9883 6.89951C61.113 6.89281 61.227 6.92611 61.3303 6.9995C61.2947 7.0619 61.2376 7.09519 61.1593 7.09949C61.0556 7.0748 60.9985 7.0081 60.9883 6.89951Z" fill="#E4B441"/>
<path opacity="0.447" fill-rule="evenodd" clip-rule="evenodd" d="M55.5855 6.99956C55.5674 7.19195 55.5103 7.22525 55.4141 7.09956C55.4434 7.01576 55.5005 6.98237 55.5855 6.99956Z" fill="#E4B441"/>
<path opacity="0.51" fill-rule="evenodd" clip-rule="evenodd" d="M54.3003 7.29952C54.2823 7.49191 54.2252 7.5252 54.1289 7.39951C54.1582 7.31572 54.2153 7.28232 54.3003 7.29952Z" fill="#E4B441"/>
<path fill-rule="evenodd" clip-rule="evenodd" d="M63.5655 8.01718C65.1302 7.93497 65.8839 8.81247 65.8251 10.6496C65.4627 11.937 64.7092 12.4939 63.5655 12.3202C62.5452 11.8386 62.1046 10.9443 62.2438 9.63712C62.4728 8.84234 62.9134 8.30229 63.5655 8.01718Z" fill="white"/>
<path opacity="0.837" fill-rule="evenodd" clip-rule="evenodd" d="M31.7561 9.39946C31.2703 9.39946 30.7846 9.39946 30.2988 9.39946C30.5058 9.26807 30.7487 9.20138 31.0275 9.19948C31.3062 9.20138 31.5491 9.26807 31.7561 9.39946Z" fill="#E4B441"/>
<path opacity="0.682" fill-rule="evenodd" clip-rule="evenodd" d="M58.4462 9.83954C57.7366 9.72888 57.0261 9.72888 56.3145 9.83954C56.3501 9.76644 56.4069 9.71582 56.485 9.68767C57.1103 9.62014 57.7356 9.62014 58.3609 9.68767C58.4083 9.72645 58.4367 9.77707 58.4462 9.83954Z" fill="#E4B441"/>
<path opacity="0.698" fill-rule="evenodd" clip-rule="evenodd" d="M55.7199 9.83954C55.5269 9.91234 55.3279 9.94605 55.123 9.94079C55.1923 9.78963 55.3059 9.7221 55.4641 9.7383C55.5687 9.74032 55.6539 9.77404 55.7199 9.83954Z" fill="#E4B441"/>
<path opacity="0.047" fill-rule="evenodd" clip-rule="evenodd" d="M53.6712 10.1433C53.5954 10.205 53.5103 10.2388 53.416 10.2445C53.4773 10.054 53.5624 10.0203 53.6712 10.1433Z" fill="#787878"/>
<path opacity="0.972" fill-rule="evenodd" clip-rule="evenodd" d="M229.259 10.1993C238.116 10.1826 246.974 10.1993 255.832 10.2493C255.875 10.2993 255.918 10.3493 255.961 10.3993C256.018 12.5325 256.018 14.6657 255.961 16.7989C255.805 16.9538 255.619 17.0198 255.403 16.9988C255.073 17.0638 254.829 16.9308 254.675 16.5989C254.655 14.8973 254.241 13.3474 253.432 11.9492C248.46 11.8992 243.488 11.8825 238.516 11.8992C238.516 18.7317 238.516 25.5652 238.516 32.3977C242.117 32.4147 245.717 32.3977 249.317 32.3477C249.889 31.0488 250.189 29.6659 250.217 28.198C250.648 27.9381 251.077 27.9381 251.503 28.198C251.574 31.5648 251.561 34.9316 251.46 38.2973C251.093 38.4083 250.722 38.4243 250.346 38.3473C250.303 38.2973 250.26 38.2473 250.217 38.1973C250.194 36.7464 249.894 35.3795 249.317 34.0976C245.718 33.9976 242.118 33.9646 238.516 33.9976C238.516 40.8971 238.516 47.7966 238.516 54.6961C243.488 54.7131 248.46 54.6961 253.432 54.6461C254.265 53.1432 254.694 51.4934 254.718 49.6965C255.115 49.5805 255.515 49.5635 255.918 49.6465C256.003 51.8553 256.032 54.0722 256.003 56.296C247.031 56.313 238.059 56.296 229.087 56.246C229.004 55.772 228.976 55.2891 229.001 54.7961C230.512 54.8141 231.898 54.3471 233.159 53.3962C233.23 39.9642 233.216 26.5312 233.116 13.0991C231.914 12.2152 230.599 11.7986 229.173 11.8492C229.13 11.7992 229.087 11.7492 229.044 11.6992C228.987 11.2993 228.987 10.8993 229.044 10.4993C229.104 10.3802 229.175 10.2802 229.259 10.1993Z" fill="#E4B441"/>
<path opacity="0.972" fill-rule="evenodd" clip-rule="evenodd" d="M212.456 10.2992C213.763 10.2668 215.063 10.3001 216.356 10.3992C216.399 13.6321 216.414 16.8647 216.399 20.0985C219.286 20.0985 222.171 20.0985 225.057 20.0985C225.057 20.3655 225.057 20.6314 225.057 20.8984C222.171 20.8984 219.286 20.8984 216.399 20.8984C216.385 29.5978 216.399 38.2972 216.442 46.9965C216.494 49.6473 217.394 51.7972 219.142 53.4461C222.142 55.2549 224.785 54.705 227.072 51.7962C227.222 51.4792 227.393 51.1792 227.586 50.8962C227.755 50.9772 227.883 51.1102 227.972 51.2962C226.381 54.659 223.923 56.3249 220.6 56.2959C216.555 56.1449 213.941 53.812 212.756 49.2964C212.568 48.3754 212.453 47.4425 212.413 46.4966C212.37 37.9642 212.356 29.4308 212.37 20.8984C210.999 20.8984 209.627 20.8984 208.256 20.8984C208.256 20.6314 208.256 20.3655 208.256 20.0985C209.627 20.0985 210.999 20.0985 212.37 20.0985C212.344 16.8287 212.372 13.5625 212.456 10.2992Z" fill="#E4B441"/>
<path opacity="0.384" fill-rule="evenodd" clip-rule="evenodd" d="M52.2238 10.5483C52.038 10.6675 51.839 10.7688 51.627 10.8521C51.7625 10.6171 51.9615 10.5158 52.2238 10.5483Z" fill="#E4B441"/>
<path opacity="0.944" fill-rule="evenodd" clip-rule="evenodd" d="M66.8481 10.7508C68.3079 12.4595 69.4309 14.4507 70.2162 16.7243C71.2982 19.8063 71.9378 23.0117 72.1347 26.3427C72.0802 26.4035 72.052 26.4875 72.0495 26.5958C72.0648 26.7356 72.1219 26.8196 72.22 26.849C72.22 26.8824 72.22 26.9168 72.22 26.9502C72.1646 27.0282 72.1364 27.1294 72.1347 27.2539C72.1467 27.4088 72.2038 27.5101 72.3053 27.5577C72.3053 27.6255 72.3053 27.6923 72.3053 27.7602C72.2507 27.8209 72.2226 27.905 72.22 28.0133C72.2353 28.153 72.2925 28.237 72.3905 28.2664C72.3905 28.4011 72.3905 28.5367 72.3905 28.6714C72.336 28.7321 72.3078 28.8162 72.3053 28.9245C72.3206 29.0642 72.3777 29.1483 72.4758 29.1776C72.4758 29.3801 72.4758 29.5826 72.4758 29.7851C72.4204 29.8631 72.3922 29.9643 72.3905 30.0888C72.4025 30.2437 72.4596 30.345 72.5611 30.3926C72.5901 32.3507 72.6046 34.3078 72.6037 36.2649C72.0537 42.0744 71.1721 47.812 69.9604 53.4767C69.5349 55.448 68.9525 57.3383 68.2124 59.1465C67.6419 58.3001 66.9317 57.6926 66.0807 57.3241C66.1975 57.2218 66.3109 57.1206 66.4217 57.0203C66.5761 56.8594 66.6895 56.6569 66.7628 56.4129C66.7526 56.3511 66.7236 56.3177 66.6776 56.3116C66.6776 56.2438 66.6776 56.177 66.6776 56.1091C66.7628 56.1122 66.8191 56.0615 66.8481 55.9573C66.9905 55.451 67.132 54.9448 67.2744 54.4386C67.2685 54.3616 67.2403 54.311 67.1892 54.2867C67.1892 54.2533 67.1892 54.2189 67.1892 54.1854C67.3529 54.1642 67.3819 54.0964 67.2744 53.983C67.2744 53.9495 67.2744 53.9151 67.2744 53.8817C67.3597 53.8847 67.416 53.8341 67.445 53.7298C67.5396 53.5597 67.5396 53.4079 67.445 53.2742C67.445 53.2408 67.445 53.2064 67.445 53.173C67.6087 53.1517 67.6377 53.0839 67.5302 52.9705C67.5413 52.7963 67.5695 52.6283 67.6155 52.4643C67.7008 52.4673 67.7571 52.4167 67.786 52.3124C67.8807 52.1423 67.8807 51.9904 67.786 51.8568C67.8321 51.6928 67.8602 51.5247 67.8713 51.3506C68.0461 51.2949 68.0751 51.1936 67.9566 51.0468C67.9566 51.0134 67.9566 50.979 67.9566 50.9456C68.0418 50.9486 68.0981 50.898 68.1271 50.7937C68.2218 50.6236 68.2218 50.4717 68.1271 50.3381C68.1271 50.3047 68.1271 50.2703 68.1271 50.2368C68.2874 50.1639 68.3164 50.0627 68.2124 49.9331C68.2124 49.8997 68.2124 49.8653 68.2124 49.8319C68.4238 49.6709 68.481 49.4684 68.3829 49.2244C68.3829 49.1565 68.3829 49.0897 68.3829 49.0219C68.4759 49.0097 68.5321 48.9419 68.5535 48.8194C68.6038 48.5643 68.6609 48.3111 68.724 48.06C68.718 47.9831 68.6899 47.9325 68.6387 47.9082C68.6404 47.6996 68.6686 47.4971 68.724 47.3007C68.9414 47.0678 68.9986 46.7975 68.8945 46.4907C68.9227 46.2882 68.9517 46.0857 68.9798 45.8833C69.1401 45.8104 69.1691 45.7091 69.0651 45.5795C69.0651 45.5117 69.0651 45.4449 69.0651 45.377C69.2254 45.3041 69.2544 45.2029 69.1503 45.0733C69.245 44.5012 69.3303 43.9282 69.4061 43.3521C69.5784 43.2468 69.6065 43.1121 69.4914 42.9471C69.5937 42.2019 69.708 41.4598 69.8325 40.7197C69.9851 40.3552 70.0994 39.9502 70.1736 39.5047C70.1701 39.4116 70.1412 39.3448 70.0883 39.3022C70.4166 36.5838 70.5163 33.8501 70.3867 31.1013C70.3015 30.9322 70.2162 30.7641 70.1309 30.5951C69.3277 33.9382 67.8645 36.7903 65.7396 39.1504C64.4775 40.3866 63.028 41.0791 61.3909 41.2259C60.7656 41.2259 60.1403 41.2259 59.515 41.2259C59.4013 41.2259 59.2876 41.2259 59.1739 41.2259C59.1125 41.0356 59.0272 41.0012 58.9181 41.1247C58.1734 40.9758 57.4628 40.7065 56.7864 40.3147C56.5446 39.9846 56.2319 39.7822 55.8485 39.7072C54.1722 38.6786 52.5236 37.5983 50.9029 36.4674C50.8272 36.2335 50.6851 36.0644 50.4765 35.9611C50.4248 35.9733 50.3964 36.0077 50.3913 36.0624C50.306 36.029 50.2491 35.9611 50.2207 35.8599C50.1292 35.7202 50.0155 35.6017 49.8797 35.5055C49.7998 35.4356 49.743 35.4518 49.7091 35.5561C49.1975 35.1846 48.6859 34.814 48.1743 34.4424C48.1287 34.245 48.015 34.1437 47.8332 34.1387C46.6773 33.433 45.4836 32.8255 44.252 32.3163C44.4753 31.3382 44.4753 30.3592 44.252 29.3801C45.8513 29.8732 47.3577 30.6325 48.7712 31.6582C49.4579 32.3051 50.1686 32.9126 50.9029 33.4806C52.5377 34.6652 54.1578 35.8629 55.7632 37.0748C55.918 37.2712 56.0886 37.3391 56.2748 37.2773C56.3317 37.2773 56.3601 37.3107 56.3601 37.3786C56.3489 37.4677 56.3773 37.5345 56.4453 37.5811C56.6652 37.7036 56.8784 37.8382 57.0849 37.986C57.1189 37.9628 57.133 37.9293 57.1275 37.8848C57.1844 37.8848 57.2411 37.8848 57.298 37.8848C57.3046 38.0114 57.3615 38.0954 57.4686 38.1379C57.5855 38.1784 57.6992 38.229 57.8096 38.2898C57.8614 38.2776 57.8898 38.2432 57.8949 38.1885C61.3654 39.0481 64.1651 37.7997 66.2938 34.4424C67.5217 32.2353 68.4025 29.8388 68.9372 27.2539C69.3754 25.3859 69.5033 23.4957 69.3209 21.5841C69.372 21.5598 69.4002 21.5092 69.4061 21.4323C69.3567 21.249 69.1861 21.165 69.1503 20.9767C69.1145 20.8491 69.1717 20.681 69.0651 20.6729C68.4153 17.8461 67.2778 15.3485 65.6543 13.1807C66.2708 12.5276 66.669 11.7176 66.8481 10.7508Z" fill="#E4B441"/>
<path opacity="0.059" fill-rule="evenodd" clip-rule="evenodd" d="M25.7064 11.257C25.6661 11.3994 25.5811 11.4669 25.4512 11.4595C25.4914 11.3172 25.5765 11.2496 25.7064 11.257Z" fill="#E4B441"/>
<path opacity="0.329" fill-rule="evenodd" clip-rule="evenodd" d="M50.6881 11.2571C50.5648 11.4153 50.4228 11.5503 50.2617 11.662C50.3154 11.4092 50.4575 11.2743 50.6881 11.2571Z" fill="#E4B441"/>
<path opacity="0.176" fill-rule="evenodd" clip-rule="evenodd" d="M61.0929 11.5608C61.0991 11.7154 61.0422 11.8167 60.9223 11.8646C60.9161 11.71 60.973 11.6087 61.0929 11.5608Z" fill="#E4B441" fill-opacity="0.537255"/>
<path opacity="0.933" fill-rule="evenodd" clip-rule="evenodd" d="M106.591 11.999C110.935 11.5018 115.165 12.0851 119.278 13.7488C122.078 15.1892 124.521 17.2056 126.607 19.7984C128.815 22.7802 130.615 26.08 132.007 29.6977C134.307 35.6623 136.607 41.6288 138.908 47.5964C140.74 43.1427 142.454 38.66 144.051 34.1474C146.808 27.1659 149.508 20.1494 152.152 13.0989C152.566 12.6907 153.037 12.5573 153.566 12.6989C153.664 12.891 153.678 13.091 153.609 13.2989C148.029 27.7838 142.5 42.2828 137.022 56.7957C136.936 56.7957 136.851 56.7957 136.765 56.7957C134.103 49.3983 131.317 42.0658 128.407 34.7973C126.768 29.7727 124.597 25.106 121.892 20.7983C117.721 14.5645 112.278 12.2147 105.562 13.7488C103.065 14.2299 100.937 15.5132 99.1762 17.5986C98.2787 18.9255 97.6787 20.4254 97.3761 22.0982C97.0049 22.3652 96.6329 22.3652 96.2617 22.0982C96.6989 18.5275 98.2564 15.8441 100.934 14.0488C102.747 13.0541 104.632 12.3708 106.591 11.999Z" fill="#E4B441"/>
<path opacity="0.027" fill-rule="evenodd" clip-rule="evenodd" d="M25.3649 11.5608C24.9931 12.036 24.6235 12.5084 24.2565 12.9783C24.2438 12.8718 24.2579 12.7705 24.2991 12.6745C24.6198 12.2422 24.9751 11.871 25.3649 11.5608Z" fill="#E4B441"/>
<path opacity="0.525" fill-rule="evenodd" clip-rule="evenodd" d="M50.006 11.8646C49.7685 12.2302 49.74 12.6015 49.921 12.9783C49.8465 12.9916 49.7897 12.9579 49.7508 12.8771C49.6018 12.443 49.6869 12.1056 50.006 11.8646Z" fill="#E4B441"/>
<path opacity="0.076" fill-rule="evenodd" clip-rule="evenodd" d="M24.1711 13.0795C24.085 13.2184 23.9999 13.3533 23.9159 13.4844C23.8808 13.2341 23.9659 13.0991 24.1711 13.0795Z" fill="#8A8A8A"/>
<path opacity="0.1" fill-rule="evenodd" clip-rule="evenodd" d="M23.9152 13.4845C23.8291 13.6234 23.7441 13.7584 23.66 13.8895C23.625 13.6391 23.71 13.5042 23.9152 13.4845Z" fill="#E4B441"/>
<path opacity="0.188" fill-rule="evenodd" clip-rule="evenodd" d="M23.6602 13.8893C23.6234 14.0118 23.5665 14.1131 23.4897 14.1931C23.4713 14.0231 23.5282 13.9218 23.6602 13.8893Z" fill="#E4B441"/>
<path opacity="0.01" fill-rule="evenodd" clip-rule="evenodd" d="M62.8821 13.8894C62.8149 13.9806 62.7299 14.0482 62.627 14.0919C62.6482 13.9479 62.7191 13.8467 62.8396 13.7882C62.8735 13.8112 62.8877 13.8451 62.8821 13.8894Z" fill="#868686"/>
<path opacity="0.455" fill-rule="evenodd" clip-rule="evenodd" d="M20.5883 15.2057C20.5703 15.5785 20.457 15.8822 20.248 16.1169C20.33 15.7885 20.4434 15.4848 20.5883 15.2057Z" fill="#E4B441"/>
<path opacity="0.314" fill-rule="evenodd" clip-rule="evenodd" d="M22.72 15.7118C22.7024 15.9893 22.6174 16.2251 22.4648 16.4205C22.4825 16.1431 22.5675 15.9068 22.72 15.7118Z" fill="#E4B441"/>
<path opacity="0.333" fill-rule="evenodd" clip-rule="evenodd" d="M20.2454 16.2179C20.2916 16.224 20.3199 16.2574 20.3305 16.3192C20.2654 16.5014 20.2087 16.6867 20.1604 16.876C20.1318 16.9803 20.075 17.0309 19.9902 17.0279C20.0763 16.7495 20.1614 16.4791 20.2454 16.2179Z" fill="#E4B441" fill-opacity="0.537255"/>
<path opacity="0.212" fill-rule="evenodd" clip-rule="evenodd" d="M19.9904 17.2304C20.0366 17.2365 20.065 17.2699 20.0755 17.3317C20.0487 17.5322 19.9636 17.6678 19.8203 17.7367C19.8649 17.5534 19.9216 17.3853 19.9904 17.2304Z" fill="#868686"/>
<path opacity="0.553" fill-rule="evenodd" clip-rule="evenodd" d="M22.4654 16.4204C22.3002 17.1099 22.1013 17.7852 21.8685 18.4453C21.8222 18.4393 21.7938 18.4058 21.7832 18.3441C21.9795 17.6759 22.2069 17.035 22.4654 16.4204Z" fill="#E4B441"/>
<path opacity="0.416" fill-rule="evenodd" clip-rule="evenodd" d="M19.8209 17.9393C19.8672 17.9454 19.8956 17.9788 19.9061 18.0405C19.7859 18.4597 19.6723 18.8809 19.5651 19.3061C19.5364 19.4104 19.4795 19.461 19.3945 19.458C19.5247 18.9386 19.6668 18.4324 19.8209 17.9393Z" fill="#E4B441"/>
<path opacity="0.977" fill-rule="evenodd" clip-rule="evenodd" d="M193.513 20.0985C196.594 19.8545 198.98 21.2205 200.67 24.1982C201.544 25.8861 202.201 27.686 202.642 29.5978C204.47 38.3602 206.284 47.1266 208.085 55.896C208.07 56.0009 208.042 56.1009 208 56.1959C206.715 56.3129 205.429 56.3289 204.142 56.2459C204.062 56.2069 204.006 56.1409 203.971 56.0459C202.15 47.3316 200.335 38.6162 198.527 29.8978C198.17 28.148 197.627 26.4811 196.899 24.8982C195.093 21.8174 192.735 21.1005 189.827 22.7483C188.906 23.3553 188.149 24.1722 187.555 25.1982C187.527 35.5304 187.498 45.8637 187.469 56.1959C186.232 56.3119 184.989 56.3279 183.741 56.2459C183.698 56.1959 183.655 56.1459 183.612 56.0959C183.47 44.2358 183.441 32.3696 183.526 20.4985C183.681 20.3085 183.867 20.2585 184.083 20.3485C185.44 21.2654 186.512 22.5154 187.298 24.0982C188.125 22.9663 189.082 22.0164 190.17 21.2484C191.241 20.6485 192.355 20.2645 193.513 20.0985Z" fill="#E4B441"/>
<path opacity="0.647" fill-rule="evenodd" clip-rule="evenodd" d="M21.4418 20.3694C21.3697 20.747 21.2846 21.1176 21.1866 21.4831C21.1404 21.477 21.1121 21.4436 21.1016 21.3818C21.1856 21.0831 21.2565 20.7794 21.3142 20.4706C21.3468 20.4139 21.3893 20.3805 21.4418 20.3694Z" fill="#E4B441"/>
<path opacity="0.725" fill-rule="evenodd" clip-rule="evenodd" d="M20.7602 23.7103C20.6583 24.1639 20.5449 24.6023 20.4199 25.0265C20.4183 24.5233 20.5317 24.0849 20.7602 23.7103Z" fill="#E4B441" fill-opacity="0.8"/>
<path opacity="0.776" fill-rule="evenodd" clip-rule="evenodd" d="M20.4175 25.2292C20.3856 25.452 20.3287 25.6545 20.247 25.8367C20.2065 25.5755 20.2634 25.373 20.4175 25.2292Z" fill="#E4B441"/>
<path opacity="0.94" fill-rule="evenodd" clip-rule="evenodd" d="M118.505 26.2983C121.068 27.7422 122.626 30.108 123.176 33.3978C123.276 34.1287 123.361 34.8617 123.434 35.5976C123.518 42.3391 123.49 49.0716 123.348 55.7961C123.271 55.9161 123.17 55.9991 123.048 56.0461C121.554 56.1431 120.068 56.1101 118.59 55.9461C118.547 55.8961 118.505 55.8461 118.462 55.7961C118.447 54.2623 118.404 52.7284 118.333 51.1965C116.285 53.8623 113.742 55.5462 110.704 56.2461C107.87 56.7371 105.041 56.7031 102.218 56.1461C100.086 55.5862 98.1715 54.5192 96.4743 52.9464C93.6635 49.8516 92.7351 46.1018 93.6883 41.6972C94.3707 39.3213 95.5853 37.4055 97.3315 35.9476C99.063 34.6727 100.949 33.8387 102.989 33.4478C104.751 33.1378 106.522 32.9708 108.304 32.9478C111.561 32.9808 114.819 32.9808 118.076 32.9478C118.233 32.8978 118.333 32.7808 118.376 32.5978C118.391 30.491 118.434 28.3911 118.505 26.2983ZM117.39 34.3977C117.685 34.3777 117.971 34.4277 118.247 34.5477C118.301 34.6227 118.344 34.7057 118.376 34.7977C118.433 39.2973 118.433 43.797 118.376 48.2967C118.262 48.9286 118.034 49.4956 117.69 49.9966C116.441 51.9524 114.827 53.3353 112.847 54.1463C109.766 55.4902 106.68 55.5242 103.589 54.2463C100.649 52.7834 98.9773 50.1996 98.5744 46.4968C97.9607 42.2131 99.1462 38.7634 102.132 36.1476C103.287 35.3106 104.544 34.8107 105.904 34.6477C109.745 34.5357 113.574 34.4527 117.39 34.3977Z" fill="#E4B441"/>
<path opacity="0.948" fill-rule="evenodd" clip-rule="evenodd" d="M173.195 26.5983C173.37 26.5823 173.541 26.5983 173.71 26.6483C176.116 28.3082 177.559 30.758 178.039 33.9977C178.179 41.3282 178.208 48.6607 178.124 55.9962C178.047 56.1161 177.947 56.1991 177.824 56.2461C176.333 56.3421 174.847 56.3081 173.367 56.1461C173.324 56.0962 173.281 56.0462 173.238 55.9962C173.224 54.4623 173.181 52.9284 173.11 51.3965C170.76 54.3833 167.846 56.1331 164.366 56.6461C160.316 57.3841 156.488 56.6501 152.88 54.4463C149.038 51.6375 147.537 47.6218 148.379 42.3971C148.853 40.1743 149.839 38.3244 151.337 36.8475C152.626 35.5286 154.111 34.6287 155.794 34.1477C157.931 33.5248 160.103 33.1918 162.309 33.1478C164.938 33.0968 167.567 33.1138 170.195 33.1978C171.144 33.2108 172.087 33.1608 173.024 33.0478C173.067 32.9978 173.11 32.9478 173.153 32.8978C173.195 30.798 173.21 28.6981 173.195 26.5983ZM164.881 34.5977C167.526 34.6047 170.183 34.6217 172.853 34.6477C172.975 34.6947 173.075 34.7777 173.153 34.8977C173.21 39.4304 173.21 43.964 173.153 48.4967C172.93 49.4166 172.529 50.2166 171.953 50.8965C170.552 52.6894 168.852 53.9393 166.852 54.6463C164.001 55.6982 161.172 55.6312 158.366 54.4463C155.364 52.9434 153.664 50.2936 153.265 46.4968C152.793 42.4191 153.921 39.1034 156.651 36.5476C158.016 35.4496 159.531 34.8497 161.195 34.7477C162.438 34.7307 163.667 34.6807 164.881 34.5977Z" fill="#E4B441"/>
<path opacity="0.959" fill-rule="evenodd" clip-rule="evenodd" d="M44.3789 29.3803C44.6022 30.3593 44.6022 31.3384 44.3789 32.3164C43.4286 34.1945 42.0643 34.7858 40.286 34.0882C39.7665 33.7916 39.3402 33.3694 39.007 32.8226C39.0272 32.692 38.9988 32.5908 38.9217 32.5189C38.5827 31.6441 38.4975 30.7329 38.6659 29.7852C38.9942 28.5014 39.7048 27.6743 40.7976 27.3047C42.4389 26.9463 43.6327 27.6378 44.3789 29.3803Z" fill="#C39320"/>
<path opacity="0.024" fill-rule="evenodd" clip-rule="evenodd" d="M72.347 26.9501C72.3751 27.1526 72.4041 27.3551 72.4323 27.5576C72.3308 27.51 72.2737 27.4088 72.2617 27.2539C72.2634 27.1293 72.2916 27.0281 72.347 26.9501Z" fill="#E4B441" fill-opacity="0.666667"/>
<path opacity="0.012" fill-rule="evenodd" clip-rule="evenodd" d="M72.4329 27.7603C72.479 27.9243 72.5071 28.0924 72.5182 28.2665C72.4201 28.2372 72.363 28.1531 72.3477 28.0134C72.3502 27.9051 72.3784 27.821 72.4329 27.7603Z" fill="#E4B441"/>
<path opacity="0.255" fill-rule="evenodd" clip-rule="evenodd" d="M17.263 28.1654C17.2727 28.4408 17.1876 28.6433 17.0078 28.7729C17.0614 28.545 17.1465 28.3426 17.263 28.1654Z" fill="#E4B441"/>
<path fill-rule="evenodd" clip-rule="evenodd" d="M41.1378 28.57C42.7027 28.4879 43.4559 29.3647 43.3974 31.2024C43.0346 32.4902 42.2815 33.0471 41.1378 32.8729C40.1174 32.391 39.6769 31.497 39.8161 30.1899C40.045 29.3951 40.4856 28.8555 41.1378 28.57Z" fill="white"/>
<path opacity="0.2" fill-rule="evenodd" clip-rule="evenodd" d="M72.5169 28.6715C72.563 28.8355 72.5911 29.0036 72.6022 29.1777C72.5041 29.1483 72.447 29.0643 72.4316 28.9246C72.4342 28.8163 72.4623 28.7322 72.5169 28.6715Z" fill="#878787"/>
<path opacity="0.027" fill-rule="evenodd" clip-rule="evenodd" d="M19.4798 28.7726C19.4571 29.0227 19.4003 29.2586 19.3097 29.4814C19.2635 29.4753 19.2352 29.4419 19.2246 29.3801C19.2787 29.1493 19.3638 28.9468 19.4798 28.7726Z" fill="#E4B441"/>
<path opacity="0.376" fill-rule="evenodd" clip-rule="evenodd" d="M16.9224 29.2789C16.8628 29.5897 16.7776 29.8935 16.6666 30.1901C16.6277 30.2711 16.5708 30.3045 16.4961 30.2914C16.5947 29.9218 16.7368 29.5847 16.9224 29.2789Z" fill="#636363"/>
<path opacity="0.208" fill-rule="evenodd" clip-rule="evenodd" d="M19.3081 29.5828C19.2514 29.7174 19.1947 29.8531 19.138 29.9878C19.0399 29.9057 19.0399 29.8045 19.138 29.684C19.1769 29.603 19.2336 29.5696 19.3081 29.5828Z" fill="#E4B441"/>
<path opacity="0.99" fill-rule="evenodd" clip-rule="evenodd" d="M38.6666 29.7851C38.4982 30.7328 38.5834 31.644 38.9224 32.5187C38.5956 32.7172 38.2545 32.8863 37.8992 33.025C37.2829 33.3571 36.6861 33.7458 36.1085 34.1893C35.1809 35.0266 34.2713 35.8872 33.3799 36.7711C33.2727 36.7184 33.1874 36.7863 33.1241 36.9736C30.8282 39.282 28.4975 41.5428 26.1321 43.7571C26.1377 43.7125 26.1235 43.6791 26.0895 43.6558C26.0009 43.7308 25.9583 43.832 25.9616 43.9596C25.8763 44.0274 25.791 44.0942 25.7058 44.1621C25.7113 44.1175 25.6972 44.0841 25.6631 44.0608C25.5746 44.1357 25.5319 44.237 25.5352 44.3646C25.4784 44.398 25.4216 44.4324 25.3647 44.4658C25.2574 44.4132 25.1722 44.481 25.1089 44.6683C22.2899 47.5913 19.0497 49.6162 15.3883 50.7431C15.2649 50.6023 15.1796 50.6368 15.1325 50.8443C14.9359 50.8939 14.7369 50.9284 14.5356 50.9456C14.4122 50.8048 14.327 50.8393 14.2798 51.0468C14.1945 51.0468 14.1093 51.0468 14.024 51.0468C13.9884 50.984 13.9316 50.9496 13.8535 50.9456C13.75 50.9709 13.6932 51.0377 13.6829 51.1481C13.5977 51.1481 13.5124 51.1481 13.4271 51.1481C13.3181 51.0245 13.2328 51.059 13.1713 51.2493C12.9724 51.2493 12.7734 51.2493 12.5744 51.2493C12.5235 51.1845 12.4525 51.1511 12.3613 51.1481C12.2164 51.1369 12.1169 51.2037 12.0628 51.3506C11.2385 51.3506 10.4143 51.3506 9.59005 51.3506C9.57981 51.2402 9.52294 51.1734 9.41951 51.1481C9.3414 51.1521 9.28453 51.1865 9.24897 51.2493C7.60363 51.1319 5.98353 50.8281 4.38867 50.3381C5.19659 49.7357 5.73668 48.8913 6.00877 47.8069C7.21131 48.5643 8.49034 49.0371 9.84585 49.2244C9.96344 49.437 10.1055 49.4704 10.2722 49.3256C12.0621 49.3793 13.7959 49.0421 15.4736 48.3132C15.4787 48.3678 15.5071 48.4023 15.5588 48.4144C15.7196 48.302 15.8901 48.218 16.0704 48.1613C16.1775 48.1188 16.2344 48.0347 16.241 47.9082C17.3977 47.3564 18.5346 46.7489 19.6517 46.0857C19.6462 46.1303 19.6603 46.1637 19.6944 46.187C19.8154 46.0898 19.9433 46.0058 20.0781 45.9339C20.1422 45.866 20.1707 45.782 20.1633 45.6808C22.7726 44.0142 25.1885 42.0227 27.4111 39.7072C27.6386 39.6394 27.7806 39.4713 27.8375 39.201C27.8778 39.0582 27.9631 38.9914 28.0933 38.9985C28.3207 38.9307 28.4628 38.7626 28.5196 38.4923C28.6049 38.3232 28.7186 38.1885 28.8607 38.0873C28.8946 38.1916 28.9514 38.2078 29.0312 38.1379C29.1987 37.9911 29.3124 37.8058 29.3723 37.5811C31.0398 35.7536 32.7736 34.0152 34.5737 32.3669C34.8782 32.1219 35.1909 31.9022 35.5117 31.7088C35.6934 31.7037 35.8071 31.6025 35.8527 31.405C35.8527 31.3372 35.8811 31.3038 35.938 31.3038C35.9431 31.3585 35.9715 31.3929 36.0233 31.405C36.5743 31.079 37.0859 30.7085 37.5581 30.2913C37.9178 30.0949 38.2872 29.9258 38.6666 29.7851Z" fill="#E4B441"/>
<path opacity="0.01" fill-rule="evenodd" clip-rule="evenodd" d="M72.6028 29.7852C72.631 29.9877 72.66 30.1902 72.6881 30.3927C72.5866 30.3451 72.5295 30.2439 72.5176 30.089C72.5193 29.9645 72.5474 29.8632 72.6028 29.7852Z" fill="#7B7B7B"/>
<path opacity="0.663" fill-rule="evenodd" clip-rule="evenodd" d="M16.4947 30.3927C16.4841 30.823 16.3421 31.1601 16.0684 31.4052C16.2112 31.063 16.3533 30.7258 16.4947 30.3927Z" fill="#E4B441"/>
<path opacity="0.442" fill-rule="evenodd" clip-rule="evenodd" d="M37.5576 30.2912C37.0854 30.7083 36.5738 31.0789 36.0228 31.4049C35.971 31.3927 35.9426 31.3583 35.9375 31.3036C36.464 30.9402 37.0041 30.603 37.5576 30.2912Z" fill="#E4B441"/>
<path opacity="0.027" fill-rule="evenodd" clip-rule="evenodd" d="M19.1385 30.0889C18.8625 30.913 18.5215 31.6896 18.1152 32.4175C18.3985 31.6774 18.6827 30.9343 18.9679 30.1901C19.0069 30.1091 19.0638 30.0757 19.1385 30.0889Z" fill="#E4B441"/>
<path opacity="0.455" fill-rule="evenodd" clip-rule="evenodd" d="M35.852 31.4051C35.8065 31.6025 35.6931 31.7038 35.5117 31.7088C35.5913 31.56 35.7048 31.4588 35.852 31.4051Z" fill="#E4B441"/>
<path opacity="0.954" fill-rule="evenodd" clip-rule="evenodd" d="M13.0853 34.1386C13.385 35.1055 13.4134 36.0846 13.1706 37.0747C13.2806 37.0504 13.3659 37.0849 13.4264 37.176C13.3367 37.1608 13.2514 37.178 13.1706 37.2266C12.4015 38.9316 11.2078 39.6069 9.58928 39.2515C7.60815 38.3434 6.94016 36.6728 7.58547 34.2399C8.51771 32.3516 9.86777 31.7613 11.6357 32.468C12.2747 32.8386 12.7579 33.3955 13.0853 34.1386Z" fill="#C39320"/>
<path opacity="0.729" fill-rule="evenodd" clip-rule="evenodd" d="M15.6438 32.1138C15.5644 32.5117 15.3654 32.782 15.0469 32.9237C15.2483 32.6514 15.4473 32.3811 15.6438 32.1138Z" fill="#E4B441"/>
<path opacity="0.467" fill-rule="evenodd" clip-rule="evenodd" d="M38.9217 32.5187C38.9987 32.5906 39.0271 32.6919 39.0069 32.8225C38.6352 32.8741 38.2657 32.9409 37.8984 33.025C38.2538 32.8863 38.5948 32.7172 38.9217 32.5187Z" fill="#E4B441"/>
<path opacity="0.055" fill-rule="evenodd" clip-rule="evenodd" d="M17.7752 33.1263C17.7615 33.2933 17.7047 33.429 17.6046 33.5312C17.5815 33.3409 17.6384 33.2062 17.7752 33.1263Z" fill="#E4B441"/>
<path fill-rule="evenodd" clip-rule="evenodd" d="M9.93072 33.6325C11.4957 33.5505 12.2489 34.4273 12.1903 36.265C11.8276 37.5528 11.0744 38.1097 9.93072 37.9355C8.9104 37.4536 8.46982 36.5596 8.60906 35.2525C8.83801 34.4577 9.27859 33.9181 9.93072 33.6325Z" fill="white"/>
<path opacity="0.088" fill-rule="evenodd" clip-rule="evenodd" d="M17.6055 33.5312C17.5687 33.6537 17.5118 33.7549 17.435 33.8349C17.4167 33.6648 17.4735 33.5636 17.6055 33.5312Z" fill="#E4B441"/>
<path opacity="0.086" fill-rule="evenodd" clip-rule="evenodd" d="M17.4337 33.835C17.3968 33.9575 17.3399 34.0587 17.2631 34.1387C17.2448 33.9686 17.3017 33.8674 17.4337 33.835Z" fill="#E4B441"/>
<path opacity="0.039" fill-rule="evenodd" clip-rule="evenodd" d="M17.2623 34.1386C17.2339 34.2399 17.1771 34.3077 17.0918 34.3411C17.0918 34.2064 17.1487 34.1386 17.2623 34.1386Z" fill="#E4B441"/>
<path opacity="0.573" fill-rule="evenodd" clip-rule="evenodd" d="M47.9609 34.1386C48.1423 34.1437 48.2557 34.2449 48.3012 34.4423C48.154 34.3887 48.0406 34.2874 47.9609 34.1386Z" fill="#6F6F6F"/>
<path opacity="0.02" fill-rule="evenodd" clip-rule="evenodd" d="M16.7505 34.8476C16.6084 35.2192 16.381 35.4885 16.0684 35.6576C16.2673 35.3538 16.4947 35.0835 16.7505 34.8476Z" fill="#E4B441"/>
<path opacity="0.212" fill-rule="evenodd" clip-rule="evenodd" d="M49.8359 35.5561C49.8698 35.4518 49.9266 35.4356 50.0065 35.5054C50.1423 35.6016 50.256 35.7201 50.3475 35.8598C50.1528 35.8112 49.9823 35.71 49.8359 35.5561Z" fill="#E4B441" fill-opacity="0.666667"/>
<path opacity="0.01" fill-rule="evenodd" clip-rule="evenodd" d="M50.5176 36.0625C50.5227 36.0078 50.5511 35.9734 50.6028 35.9613C50.8114 36.0645 50.9535 36.2336 51.0292 36.4675C50.8587 36.3328 50.6881 36.1972 50.5176 36.0625Z" fill="#E4B441"/>
<path opacity="0.01" fill-rule="evenodd" clip-rule="evenodd" d="M15.8133 35.9612C15.4434 36.2822 15.0456 36.5525 14.6196 36.7712C14.6084 36.6821 14.6368 36.6153 14.7048 36.5687C15.0808 36.3712 15.4361 36.1343 15.7707 35.86C15.8047 35.8832 15.8189 35.9167 15.8133 35.9612Z" fill="#E4B441"/>
<path opacity="0.088" fill-rule="evenodd" clip-rule="evenodd" d="M33.3802 36.771C33.34 36.9138 33.2549 36.9806 33.125 36.9735C33.1881 36.7862 33.2732 36.7184 33.3802 36.771Z" fill="#E4B441"/>
<path opacity="0.463" fill-rule="evenodd" clip-rule="evenodd" d="M55.8887 37.0748C56.0765 37.0849 56.2471 37.1527 56.4003 37.2773C56.2141 37.339 56.0435 37.2712 55.8887 37.0748Z" fill="#E4B441"/>
<path opacity="0.237" fill-rule="evenodd" clip-rule="evenodd" d="M56.4867 37.3784C56.757 37.5222 57.0128 37.6903 57.2542 37.8846C57.2597 37.9292 57.2455 37.9626 57.2115 37.9859C57.0051 37.8381 56.7919 37.7034 56.572 37.5809C56.504 37.5343 56.4756 37.4675 56.4867 37.3784Z" fill="#E4B441" fill-opacity="0.666667"/>
<path opacity="0.173" fill-rule="evenodd" clip-rule="evenodd" d="M29.371 37.5809C29.311 37.8056 29.1974 37.9909 29.0299 38.1377C28.95 38.2076 28.8932 38.1914 28.8594 38.0871C29.0278 37.9211 29.1983 37.753 29.371 37.5809Z" fill="#E4B441"/>
<path opacity="0.047" fill-rule="evenodd" clip-rule="evenodd" d="M57.4238 37.8848C57.6158 38.0053 57.8148 38.1065 58.0207 38.1885C58.0156 38.2432 57.9872 38.2776 57.9354 38.2898C57.825 38.229 57.7114 38.1784 57.5944 38.1379C57.4873 38.0954 57.4304 38.0114 57.4238 37.8848Z" fill="#E4B441"/>
<path opacity="0.682" fill-rule="evenodd" clip-rule="evenodd" d="M28.5201 38.4923C28.4632 38.7626 28.3212 38.9307 28.0938 38.9985C28.2074 38.796 28.3496 38.627 28.5201 38.4923Z" fill="#606060"/>
<path opacity="0.69" fill-rule="evenodd" clip-rule="evenodd" d="M27.8385 39.2012C27.7816 39.4715 27.6395 39.6396 27.4121 39.7074C27.5258 39.5049 27.6679 39.3359 27.8385 39.2012Z" fill="#5E5E5E"/>
<path opacity="0.898" fill-rule="evenodd" clip-rule="evenodd" d="M70.2161 39.3022C70.2689 39.3447 70.2978 39.4116 70.3012 39.5047C70.2272 39.9502 70.1132 40.3552 69.9609 40.7197C70.0247 40.2387 70.1098 39.7669 70.2161 39.3022Z" fill="#E4B441"/>
<path opacity="0.665" fill-rule="evenodd" clip-rule="evenodd" d="M55.9746 39.7075C56.3581 39.7824 56.6707 39.9849 56.9126 40.3149C56.5833 40.1367 56.2707 39.9343 55.9746 39.7075Z" fill="#E4B441"/>
<path opacity="0.133" fill-rule="evenodd" clip-rule="evenodd" d="M59.0449 41.1247C59.1537 41.0011 59.2388 41.0356 59.3001 41.2259C59.2058 41.2198 59.1207 41.1864 59.0449 41.1247Z" fill="#727272"/>
<path opacity="0.259" fill-rule="evenodd" clip-rule="evenodd" d="M59.6406 41.226C60.2659 41.226 60.8913 41.226 61.5165 41.226C60.8913 41.3607 60.2659 41.3607 59.6406 41.226Z" fill="#E4B441" fill-opacity="0.8"/>
<path opacity="0.145" fill-rule="evenodd" clip-rule="evenodd" d="M69.6185 42.947C69.7336 43.112 69.7054 43.2467 69.5332 43.352C69.5613 43.2173 69.5903 43.0816 69.6185 42.947Z" fill="#E4B441"/>
<path opacity="0.957" fill-rule="evenodd" clip-rule="evenodd" d="M6.00834 47.8071C5.73625 48.8914 5.19616 49.7358 4.38824 50.3382C2.31408 51.1887 0.878761 50.4132 0.0821831 48.0096C-0.212419 46.2206 0.285037 44.8537 1.57438 43.9091C3.30047 43.0738 4.679 43.5628 5.7099 45.3772C5.97841 46.1537 6.07792 46.9637 6.00834 47.8071Z" fill="#C39321"/>
<path opacity="0.01" fill-rule="evenodd" clip-rule="evenodd" d="M26.1317 43.7572C26.1033 43.8585 26.0464 43.9263 25.9611 43.9597C25.9578 43.8321 26.0004 43.7309 26.089 43.656C26.123 43.6793 26.1372 43.7127 26.1317 43.7572Z" fill="#E4B441"/>
<path opacity="0.969" fill-rule="evenodd" clip-rule="evenodd" d="M58.7892 63.2976C58.8072 63.492 58.864 63.5264 58.9597 63.3988C60.4254 63.4606 61.676 62.8865 62.7115 61.6776C63.3179 63.8271 64.5685 64.7383 66.4634 64.4113C66.3099 65.0917 66.1393 65.767 65.9517 66.4362C65.8767 66.4231 65.8204 66.4565 65.7812 66.5375C65.6832 66.658 65.6832 66.7592 65.7812 66.8412C65.7812 66.909 65.7531 66.9425 65.6959 66.9425C65.2781 67.8891 64.9089 68.8682 64.5875 69.8786C64.4318 70.3828 64.2328 70.8556 63.9906 71.296C63.6818 71.6575 63.4829 72.0959 63.3937 72.6122C63.1734 72.7621 63.0598 72.999 63.0526 73.321C63.0673 73.4212 63.0388 73.489 62.9674 73.5235C62.7763 73.6045 62.691 73.7735 62.7115 74.0297C62.5796 74.0621 62.5227 74.1633 62.541 74.3334C62.5557 74.4337 62.5272 74.5015 62.4557 74.5359C62.3237 74.5683 62.2669 74.6696 62.2852 74.8397C61.2071 76.894 59.9849 78.8176 58.6187 80.6107C58.272 80.9205 57.9878 81.2921 57.766 81.7244C57.7368 81.8095 57.68 81.8429 57.5954 81.8257C57.3141 81.9887 57.0299 82.1567 56.7428 82.3319C56.6747 82.3785 56.6463 82.4453 56.6575 82.5344C55.4393 82.9232 54.274 82.7713 53.1615 82.0788C52.9809 81.9725 52.8388 81.8206 52.7351 81.6232C52.593 81.3873 52.4225 81.1848 52.2235 81.0157C51.5353 80.1591 50.9953 79.1801 50.6034 78.0795C50.5295 77.7343 50.4301 77.3971 50.305 77.0671C50.2625 76.8605 50.163 76.7249 50.0065 76.6621C50.0065 76.5943 50.0065 76.5274 50.0065 76.4596C49.9867 76.1518 49.9014 75.8815 49.7507 75.6496C49.4695 75.0543 49.2706 74.4124 49.1539 73.726C49.2675 73.4911 49.2107 73.322 48.9833 73.2197C48.9375 73.0557 48.9091 72.8876 48.8981 72.7135C48.949 72.6892 48.9774 72.6386 48.9833 72.5616C48.9664 72.3409 48.8812 72.189 48.7275 72.106C48.7275 72.0382 48.7275 71.9714 48.7275 71.9035C48.8347 71.7901 48.8063 71.7223 48.6423 71.701C48.6423 71.6332 48.6423 71.5664 48.6423 71.4985C48.7494 71.3851 48.721 71.3173 48.557 71.296C48.557 71.2282 48.557 71.1614 48.557 71.0936C48.6642 70.9802 48.6358 70.9123 48.4717 70.8911C48.4607 70.7169 48.4323 70.5488 48.3864 70.3848C48.4397 70.3423 48.4681 70.2755 48.4717 70.1823C48.4507 70.0598 48.3938 69.992 48.3012 69.9798C48.3012 69.9464 48.3012 69.912 48.3012 69.8786C48.4193 69.7318 48.3909 69.6305 48.2159 69.5749C48.2159 69.5414 48.2159 69.507 48.2159 69.4736C48.334 69.3268 48.3056 69.2256 48.1306 69.1699C48.1306 69.1365 48.1306 69.102 48.1306 69.0686C48.2487 68.9218 48.2203 68.8206 48.0454 68.7649C48.0454 68.7315 48.0454 68.6971 48.0454 68.6636C48.1635 68.5168 48.1351 68.4156 47.9601 68.3599C47.9601 68.3265 47.9601 68.2921 47.9601 68.2587C48.0738 68.0238 48.0169 67.8547 47.7896 67.7524C47.7896 67.719 47.7896 67.6846 47.7896 67.6512C47.8405 67.6269 47.8689 67.5763 47.8748 67.4993C47.792 67.2857 47.7209 67.066 47.6617 66.8412C47.6192 66.6347 47.5197 66.499 47.3632 66.4362C47.2547 66.2125 47.1694 65.9756 47.1074 65.7275C47.0824 65.3985 46.9687 65.1281 46.7663 64.9175C46.7033 64.9307 46.6465 64.9135 46.5958 64.8669C46.6894 64.7889 46.6894 64.7049 46.5958 64.6138C46.602 64.4589 46.5452 64.3576 46.4253 64.3101C45.7819 63.3604 44.9861 63.1407 44.0378 63.652C43.6931 63.8565 43.3804 64.1096 43.0998 64.4113C42.9799 64.4589 42.923 64.5601 42.9293 64.715C42.7187 64.8274 42.6335 65.0299 42.6735 65.3225C42.6016 65.765 42.5163 66.2044 42.4177 66.6387C42.2572 66.7116 42.2288 66.8129 42.3324 66.9425C41.8047 69.2448 41.2504 71.539 40.6697 73.8272C40.0598 75.6294 39.534 77.2321 39.0922 78.6364C38.9906 78.7073 38.9054 78.7913 38.8364 78.8895C38.7165 78.9371 38.6596 79.0383 38.6658 79.1933C38.6842 79.3633 38.6273 79.4646 38.4953 79.497C38.3585 79.577 38.3017 79.7116 38.3248 79.902C38.2964 79.902 38.2679 79.902 38.2395 79.902C37.8466 80.3849 37.4345 80.8577 37.0031 81.3194C36.9635 81.3792 36.9493 81.447 36.9605 81.5219C36.7798 81.7143 36.5808 81.8834 36.3636 82.0282C36.3585 81.9735 36.3301 81.9391 36.2783 81.9269C36.0226 82.0261 35.8237 82.1942 35.6815 82.4331C35.4626 82.5324 35.2352 82.5992 34.9993 82.6356C34.6866 82.501 34.374 82.501 34.0614 82.6356C32.8759 82.3025 31.9095 81.5604 31.1622 80.4082C30.9064 80.0366 30.6222 79.6995 30.3095 79.3957C30.0056 78.9796 29.7214 78.5402 29.4569 78.0795C29.4631 77.9246 29.4062 77.8234 29.2863 77.7758C28.6202 76.9162 27.8813 76.1741 27.0693 75.5484C28.2114 75.5454 29.121 75.0057 29.7979 73.9284C29.8605 74.051 29.8889 74.1856 29.8832 74.3334C29.8369 74.3395 29.8085 74.3729 29.7979 74.4347C29.858 74.783 30.0001 75.0533 30.2243 75.2447C30.2059 75.4147 30.2628 75.516 30.3948 75.5484C30.3597 75.7985 30.4449 75.9341 30.6506 75.9534C30.6394 76.2439 30.7532 76.412 30.9917 76.4596C31.0486 76.4596 31.077 76.493 31.077 76.5609C31.0418 76.8109 31.1271 76.9466 31.3328 76.9658C31.3896 76.9658 31.418 76.9992 31.418 77.0671C31.3987 77.3131 31.4839 77.4822 31.6738 77.5733C31.7307 77.5733 31.7591 77.6067 31.7591 77.6746C31.8086 77.9024 31.9222 78.0714 32.1002 78.1808C32.4837 78.6192 32.8817 79.0414 33.2939 79.4464C34.4073 80.2169 35.3595 79.9972 36.1504 78.7883C36.7349 77.9398 37.2322 77.0286 37.6426 76.0546C37.8416 75.8845 37.9269 75.6486 37.8984 75.3459C38.5061 73.1185 39.0177 70.8911 39.4333 68.6636C39.5183 68.6667 39.5751 68.6161 39.6038 68.5118C39.6983 68.3417 39.6983 68.1898 39.6038 68.0562C39.6148 67.882 39.6432 67.714 39.6891 67.5499C39.8726 67.3606 39.9863 67.1075 40.0301 66.7906C40.0242 66.7136 39.9958 66.663 39.9449 66.6387C39.9449 66.6053 39.9449 66.5709 39.9449 66.5375C40.0299 66.5405 40.0868 66.4899 40.1154 66.3856C40.3353 65.5847 40.5627 64.792 40.7976 64.0063C40.7829 63.9061 40.8114 63.8382 40.8828 63.8038C41.0567 63.6611 41.142 63.4586 41.1386 63.1963C41.3297 63.1153 41.415 62.9463 41.3944 62.6901C41.7378 62.3499 42.0505 61.9783 42.3324 61.5764C42.3324 61.5086 42.3608 61.4752 42.4177 61.4752C42.4228 61.5298 42.4512 61.5643 42.5029 61.5764C42.8141 61.4448 43.0699 61.2423 43.2703 60.9689C43.9339 60.7148 44.616 60.6136 45.3168 60.6652C45.3348 60.8596 45.3916 60.894 45.4873 60.7664C46.169 60.8677 46.7658 61.1876 47.278 61.7283C48.306 62.7276 49.0451 63.9597 49.4949 65.4238C49.5313 65.7154 49.5882 66.0019 49.6655 66.2844C49.6941 66.3886 49.751 66.4393 49.836 66.4362C49.836 66.4696 49.836 66.5041 49.836 66.5375C49.7324 66.6671 49.7608 66.7683 49.9213 66.8412C49.9213 66.8746 49.9213 66.909 49.9213 66.9425C49.8704 66.9668 49.842 67.0174 49.836 67.0943C49.8529 67.315 49.9382 67.4669 50.0918 67.5499C50.162 67.8496 50.2189 68.1534 50.2624 68.4611C50.1552 68.5745 50.1836 68.6424 50.3476 68.6636C50.4178 68.9633 50.4747 69.2671 50.5182 69.5749C50.411 69.6883 50.4394 69.7561 50.6034 69.7774C50.6034 69.8108 50.6034 69.8452 50.6034 69.8786C50.5525 69.9029 50.5241 69.9535 50.5182 70.0305C50.6065 70.3109 50.6775 70.5985 50.7313 70.8911C50.7515 71.0551 50.8225 71.1563 50.9445 71.1948C50.9445 71.2626 50.9445 71.3295 50.9445 71.3973C50.858 71.4945 50.858 71.6129 50.9445 71.7517C50.9732 71.8559 51.03 71.9066 51.115 71.9035C51.115 71.9714 51.115 72.0382 51.115 72.106C51.0285 72.2032 51.0285 72.3217 51.115 72.4604C51.1437 72.5647 51.2006 72.6153 51.2856 72.6122C51.2856 72.6457 51.2856 72.6801 51.2856 72.7135C51.1675 72.8603 51.1959 72.9615 51.3708 73.0172C51.3708 73.0506 51.3708 73.0851 51.3708 73.1185C51.3199 73.1428 51.2915 73.1934 51.2856 73.2703C51.3025 73.4911 51.3877 73.6429 51.5414 73.726C51.5414 73.7594 51.5414 73.7938 51.5414 73.8272C51.4905 73.8515 51.4621 73.9021 51.4561 73.9791C51.473 74.1998 51.5583 74.3517 51.7119 74.4347C51.7119 74.4681 51.7119 74.5025 51.7119 74.5359C51.661 74.5602 51.6326 74.6108 51.6266 74.6878C51.6435 74.9085 51.7288 75.0604 51.8825 75.1434C51.8825 75.1768 51.8825 75.2112 51.8825 75.2447C51.8315 75.2689 51.8032 75.3196 51.7972 75.3965C51.8141 75.6172 51.8993 75.7691 52.053 75.8521C52.053 75.8855 52.053 75.92 52.053 75.9534C52.0021 75.9777 51.9737 76.0283 51.9677 76.1052C51.9846 76.326 52.0699 76.4778 52.2235 76.5609C52.2235 76.5943 52.2235 76.6287 52.2235 76.6621C52.1772 76.6682 52.1488 76.7016 52.1383 76.7633C52.1706 76.9365 52.2558 77.0377 52.3941 77.0671C52.3941 77.1005 52.3941 77.1349 52.3941 77.1683C52.3113 77.3162 52.3397 77.4518 52.4793 77.5733C53.5424 79.8372 55.0487 80.2594 56.9986 78.8389C57.5467 78.3914 58.044 77.8679 58.4908 77.2696C58.9048 76.5538 59.3169 75.845 59.7271 75.1434C59.8764 75.026 59.9616 74.8569 59.983 74.6372C60.1322 74.5197 60.2174 74.3506 60.2388 74.1309C60.388 74.0135 60.4733 73.8444 60.4946 73.6247C60.821 72.7813 61.1905 71.9714 61.6031 71.1948C62.0258 70.562 62.3384 69.8533 62.541 69.0686C62.9563 68.4875 63.2405 67.8122 63.3937 67.0437C63.5017 66.8129 63.587 66.5597 63.6495 66.2844C63.6435 66.2074 63.6151 66.1568 63.5642 66.1325C63.6137 65.6961 63.6422 65.2577 63.6495 64.8163C62.8638 65.1332 62.068 65.4197 61.262 65.6769C59.3249 66.2185 57.5342 65.8136 55.8901 64.4619C54.7465 63.2399 53.7943 61.8386 53.0336 60.2602C51.7864 57.6025 50.6068 54.9022 49.4949 52.1605C49.5133 51.9904 49.4564 51.8892 49.3244 51.8568C49.345 51.6006 49.2597 51.4315 49.0686 51.3505C48.1834 49.6071 47.0181 48.1734 45.5726 47.0476C43.6218 46.6507 42.016 47.3756 40.7549 49.2244C40.2122 50.0202 39.6579 50.7957 39.0922 51.553C38.9142 51.6624 38.8006 51.8314 38.7511 52.0593C38.6009 52.1362 38.5156 52.2719 38.4953 52.4642C38.4384 52.5989 38.3532 52.7001 38.2395 52.768C38.0893 52.8449 38.004 52.9806 37.9837 53.173C36.9931 54.6532 35.9414 56.0706 34.8288 57.4253C34.374 57.8981 33.9477 58.4044 33.5497 58.944C30.4582 62.4633 26.7631 64.2179 22.4648 64.2088C22.5549 63.8372 22.6543 63.4667 22.7633 63.0951C22.8058 62.5899 22.8201 62.0836 22.8059 61.5764C25.521 61.4073 28.0507 60.5133 30.3948 58.8934C31.0378 58.2474 31.6916 57.6227 32.356 57.0203C32.8107 56.6832 33.1803 56.2438 33.4645 55.7041C33.5213 55.5695 33.6066 55.4682 33.7203 55.4004C33.9261 55.2576 34.0683 55.0551 34.1466 54.7929C34.1404 54.638 34.1973 54.5367 34.3172 54.4892C34.611 54.3768 34.7815 54.1399 34.8288 53.7804C34.8856 53.6458 34.9709 53.5445 35.0846 53.4767C35.3784 53.3643 35.5489 53.1274 35.5962 52.768C35.6246 52.6667 35.6815 52.5989 35.7667 52.5655C35.9941 52.4976 36.1362 52.3296 36.1931 52.0593C36.3352 51.8233 36.5057 51.6209 36.7047 51.4518C36.8826 51.3424 36.9963 51.1733 37.0457 50.9455C37.355 50.41 37.7245 49.9371 38.1542 49.5281C38.3322 49.4187 38.4459 49.2497 38.4953 49.0219C38.5806 48.8528 38.6942 48.7181 38.8364 48.6169C38.9563 48.5693 39.0131 48.468 39.0069 48.3131C39.1775 48.0428 39.3764 47.8069 39.6038 47.6044C39.7818 47.4951 39.8954 47.326 39.9449 47.0982C40.0585 46.8957 40.2007 46.7266 40.3712 46.592C40.7745 46.2143 41.1156 45.7759 41.3944 45.2758C41.3944 45.2079 41.4228 45.1745 41.4797 45.1745C41.6359 45.298 41.7212 45.2302 41.7355 44.972C41.7639 44.972 41.7924 44.972 41.8208 44.972C42.0185 44.9224 42.1891 44.8212 42.3324 44.6683C44.3291 43.4148 46.205 43.6335 47.9601 45.3264C49.2699 46.7691 50.3642 48.4063 51.2429 50.2368C52.2292 52.2749 53.0534 54.4011 53.7157 56.6153C54.4901 58.6129 55.5275 60.3847 56.828 61.9308C57.4332 62.4927 58.0868 62.9483 58.7892 63.2976Z" fill="#E4B441"/>
<path opacity="0.01" fill-rule="evenodd" clip-rule="evenodd" d="M25.7059 44.1622C25.6775 44.2634 25.6206 44.3312 25.5353 44.3647C25.532 44.2371 25.5746 44.1358 25.6632 44.0609C25.6973 44.0842 25.7114 44.1176 25.7059 44.1622Z" fill="#A2A2A2"/>
<path opacity="0.01" fill-rule="evenodd" clip-rule="evenodd" d="M25.3646 44.4658C25.3243 44.6085 25.2393 44.6753 25.1094 44.6682C25.1725 44.4809 25.2576 44.4131 25.3646 44.4658Z" fill="#848484"/>
<path opacity="0.404" fill-rule="evenodd" clip-rule="evenodd" d="M42.3339 44.6685C42.1905 44.8213 42.02 44.9226 41.8223 44.9722C41.9426 44.7656 42.1131 44.6644 42.3339 44.6685Z" fill="#787878"/>
<path fill-rule="evenodd" clip-rule="evenodd" d="M2.59674 44.972C4.16167 44.89 4.91493 45.7668 4.85635 47.6044C4.49362 48.8923 3.74045 49.4491 2.59674 49.275C1.57642 48.7931 1.13584 47.8991 1.27508 46.592C1.50403 45.7972 1.94461 45.2575 2.59674 44.972Z" fill="white"/>
<path opacity="0.549" fill-rule="evenodd" clip-rule="evenodd" d="M41.7337 44.9719C41.7194 45.23 41.6344 45.2979 41.4785 45.1744C41.5636 45.1065 41.6486 45.0397 41.7337 44.9719Z" fill="#E4B441"/>
<path opacity="0.102" fill-rule="evenodd" clip-rule="evenodd" d="M69.2786 45.0734C69.3827 45.203 69.3537 45.3042 69.1934 45.3771C69.1985 45.2648 69.2266 45.1635 69.2786 45.0734Z" fill="#E4B441"/>
<path opacity="0.106" fill-rule="evenodd" clip-rule="evenodd" d="M69.1927 45.5795C69.2967 45.7091 69.2677 45.8104 69.1074 45.8833C69.1125 45.7709 69.1407 45.6696 69.1927 45.5795Z" fill="#E4B441"/>
<path opacity="0.69" fill-rule="evenodd" clip-rule="evenodd" d="M20.1612 45.6807C20.1686 45.7819 20.1401 45.866 20.0759 45.9338C19.9411 46.0057 19.8132 46.0897 19.6922 46.1869C19.6582 46.1636 19.6441 46.1302 19.6496 46.0857C19.817 45.952 19.9875 45.8174 20.1612 45.6807Z" fill="#E4B441"/>
<path opacity="0.604" fill-rule="evenodd" clip-rule="evenodd" d="M41.3943 45.2758C41.1155 45.7759 40.7744 46.2143 40.3711 46.592C40.6499 46.0918 40.991 45.6534 41.3943 45.2758Z" fill="#666666"/>
<path opacity="0.82" fill-rule="evenodd" clip-rule="evenodd" d="M69.0217 46.491C69.1255 46.7977 69.0685 47.0681 68.8516 47.3009C68.8975 47.0255 68.9545 46.7552 69.0217 46.491Z" fill="#E4B441"/>
<path opacity="0.51" fill-rule="evenodd" clip-rule="evenodd" d="M39.9457 47.098C39.8964 47.3258 39.783 47.4949 39.6055 47.6043C39.6548 47.3764 39.7682 47.2074 39.9457 47.098Z" fill="#E4B441"/>
<path opacity="0.855" fill-rule="evenodd" clip-rule="evenodd" d="M16.2401 47.9081C16.2335 48.0347 16.1766 48.1187 16.0695 48.1613C15.8892 48.218 15.7187 48.302 15.5579 48.4144C15.5062 48.4022 15.4778 48.3678 15.4727 48.3131C15.7129 48.1542 15.9687 48.0185 16.2401 47.9081Z" fill="#E4B441"/>
<path opacity="0.271" fill-rule="evenodd" clip-rule="evenodd" d="M68.765 47.9083C68.816 47.9326 68.8441 47.9832 68.85 48.0601C68.7871 48.3112 68.7301 48.5643 68.6799 48.8195C68.6586 48.942 68.6025 49.0098 68.5098 49.022C68.5821 48.6443 68.6671 48.2738 68.765 47.9083Z" fill="#E4B441"/>
<path opacity="0.549" fill-rule="evenodd" clip-rule="evenodd" d="M39.0069 48.3131C39.0132 48.468 38.9563 48.5692 38.8364 48.6168C38.8302 48.4619 38.887 48.3607 39.0069 48.3131Z" fill="#E4B441"/>
<path opacity="0.741" fill-rule="evenodd" clip-rule="evenodd" d="M9.84375 49.2244C9.99655 49.2112 10.1386 49.2446 10.2701 49.3256C10.1034 49.4704 9.96134 49.437 9.84375 49.2244Z" fill="#E4B441"/>
<path opacity="0.588" fill-rule="evenodd" clip-rule="evenodd" d="M38.4945 49.0219C38.4452 49.2497 38.3318 49.4188 38.1543 49.5282C38.2036 49.3004 38.317 49.1313 38.4945 49.0219Z" fill="#E4B441"/>
<path opacity="0.518" fill-rule="evenodd" clip-rule="evenodd" d="M68.51 49.2245C68.6078 49.4686 68.5508 49.671 68.3398 49.832C68.3722 49.6093 68.4283 49.4068 68.51 49.2245Z" fill="#E4B441"/>
<path opacity="0.396" fill-rule="evenodd" clip-rule="evenodd" d="M68.3392 49.9333C68.4432 50.0629 68.4142 50.1641 68.2539 50.237C68.259 50.1246 68.2872 50.0234 68.3392 49.9333Z" fill="#6F6F6F"/>
<path opacity="0.01" fill-rule="evenodd" clip-rule="evenodd" d="M15.386 50.7431C15.3103 50.8049 15.2252 50.8383 15.1309 50.8444C15.1779 50.6368 15.263 50.6024 15.386 50.7431Z" fill="#E4B441"/>
<path opacity="0.482" fill-rule="evenodd" clip-rule="evenodd" d="M68.2541 50.3382C68.3485 50.4718 68.3485 50.6237 68.2541 50.7938C68.2252 50.8981 68.169 50.9487 68.084 50.9457C68.141 50.7432 68.1971 50.5407 68.2541 50.3382Z" fill="#E4B441"/>
<path opacity="0.043" fill-rule="evenodd" clip-rule="evenodd" d="M14.5345 50.9455C14.4587 51.0072 14.3736 51.0406 14.2793 51.0467C14.3263 50.8392 14.4114 50.8047 14.5345 50.9455Z" fill="#E4B441"/>
<path opacity="0.035" fill-rule="evenodd" clip-rule="evenodd" d="M14.0219 51.0469C13.9191 51.1208 13.8057 51.1552 13.6816 51.1481C13.6918 51.0378 13.7486 50.9709 13.8518 50.9456C13.9297 50.9497 13.9864 50.9841 14.0219 51.0469Z" fill="#E4B441"/>
<path opacity="0.01" fill-rule="evenodd" clip-rule="evenodd" d="M13.4251 51.1481C13.3493 51.2099 13.2643 51.2433 13.1699 51.2494C13.2313 51.059 13.3163 51.0246 13.4251 51.1481Z" fill="#E4B441"/>
<path opacity="0.027" fill-rule="evenodd" clip-rule="evenodd" d="M9.5883 51.3504C9.45228 51.3778 9.33889 51.3434 9.24805 51.2492C9.28352 51.1864 9.34025 51.152 9.41817 51.1479C9.52135 51.1733 9.57809 51.2401 9.5883 51.3504Z" fill="#8A8A8A"/>
<path opacity="0.01" fill-rule="evenodd" clip-rule="evenodd" d="M12.5741 51.2493C12.4091 51.3151 12.2386 51.3485 12.0625 51.3505C12.1166 51.2037 12.2161 51.1369 12.3609 51.148C12.4522 51.151 12.5232 51.1845 12.5741 51.2493Z" fill="#E4B441"/>
<path opacity="0.58" fill-rule="evenodd" clip-rule="evenodd" d="M37.0453 50.9456C36.996 51.1734 36.8826 51.3425 36.7051 51.4518C36.7544 51.224 36.8678 51.0549 37.0453 50.9456Z" fill="#545454"/>
<path opacity="0.506" fill-rule="evenodd" clip-rule="evenodd" d="M68.0833 51.0469C68.2018 51.1937 68.1728 51.295 67.998 51.3506C68.0501 51.2605 68.0782 51.1593 68.0833 51.0469Z" fill="#E4B441"/>
<path opacity="0.502" fill-rule="evenodd" clip-rule="evenodd" d="M49.0684 51.3506C49.259 51.4316 49.344 51.6006 49.3235 51.8568C49.2183 51.709 49.1333 51.5399 49.0684 51.3506Z" fill="#E4B441"/>
<path opacity="0.078" fill-rule="evenodd" clip-rule="evenodd" d="M39.0922 51.5528C39.0429 51.7806 38.9295 51.9497 38.752 52.059C38.8013 51.8312 38.9147 51.6621 39.0922 51.5528Z" fill="#E4B441"/>
<path opacity="0.01" fill-rule="evenodd" clip-rule="evenodd" d="M49.3242 51.8568C49.4562 51.8892 49.5131 51.9905 49.4948 52.1606C49.4179 52.0806 49.3611 51.9793 49.3242 51.8568Z" fill="#E4B441"/>
<path opacity="0.02" fill-rule="evenodd" clip-rule="evenodd" d="M38.7513 52.0591C38.731 52.2515 38.646 52.3872 38.4961 52.4641C38.5163 52.2717 38.6014 52.1361 38.7513 52.0591Z" fill="#E4B441"/>
<path opacity="0.537" fill-rule="evenodd" clip-rule="evenodd" d="M67.9143 51.8568C68.0087 51.9905 68.0087 52.1423 67.9143 52.3124C67.8853 52.4167 67.8292 52.4673 67.7441 52.4643C67.8011 52.2618 67.8573 52.0593 67.9143 51.8568Z" fill="#666666"/>
<path opacity="0.404" fill-rule="evenodd" clip-rule="evenodd" d="M36.1939 52.0592C36.137 52.3296 35.995 52.4976 35.7676 52.5655C35.8812 52.363 36.0234 52.1939 36.1939 52.0592Z" fill="#E4B441"/>
<path opacity="0.035" fill-rule="evenodd" clip-rule="evenodd" d="M38.2396 52.7682C38.2193 52.9606 38.1343 53.0963 37.9844 53.1732C38.0046 52.9809 38.0897 52.8452 38.2396 52.7682Z" fill="#E4B441" fill-opacity="0.537255"/>
<path opacity="0.467" fill-rule="evenodd" clip-rule="evenodd" d="M67.6573 52.9703C67.7648 53.0837 67.7358 53.1515 67.5721 53.1728C67.5576 53.0726 67.5857 53.0047 67.6573 52.9703Z" fill="#E4B441"/>
<path opacity="0.478" fill-rule="evenodd" clip-rule="evenodd" d="M35.5956 52.7682C35.5484 53.1276 35.3778 53.3645 35.084 53.4769C35.2352 53.2177 35.4057 52.9818 35.5956 52.7682Z" fill="#E4B441" fill-opacity="0.486275"/>
<path opacity="0.671" fill-rule="evenodd" clip-rule="evenodd" d="M67.5725 53.2743C67.6669 53.4079 67.6669 53.5598 67.5725 53.7299C67.5435 53.8342 67.4874 53.8848 67.4023 53.8817C67.4423 53.6711 67.4993 53.4687 67.5725 53.2743Z" fill="#E4B441"/>
<path opacity="0.196" fill-rule="evenodd" clip-rule="evenodd" d="M67.4015 53.9829C67.5089 54.0963 67.4799 54.1642 67.3162 54.1854C67.3017 54.0852 67.3298 54.0174 67.4015 53.9829Z" fill="#8E8E8E"/>
<path opacity="0.525" fill-rule="evenodd" clip-rule="evenodd" d="M34.83 53.7805C34.7827 54.1399 34.6122 54.3769 34.3184 54.4892C34.4914 54.2503 34.6619 54.0144 34.83 53.7805Z" fill="#7B7B7B"/>
<path opacity="0.502" fill-rule="evenodd" clip-rule="evenodd" d="M34.147 54.793C34.0687 55.0552 33.9265 55.2577 33.7207 55.4005C33.7991 55.1382 33.9412 54.9358 34.147 54.793Z" fill="#E4B441"/>
<path opacity="0.4" fill-rule="evenodd" clip-rule="evenodd" d="M67.3183 54.287C67.3694 54.3113 67.3976 54.3619 67.4035 54.4388C67.2611 54.9451 67.1196 55.4513 66.9772 55.9575C66.9482 56.0618 66.8919 56.1124 66.8066 56.1094C66.9772 55.5019 67.1477 54.8944 67.3183 54.287Z" fill="#E4B441"/>
<path opacity="0.651" fill-rule="evenodd" clip-rule="evenodd" d="M33.4659 55.7043C33.1817 56.244 32.8122 56.6834 32.3574 57.0205C32.6985 56.5477 33.068 56.1093 33.4659 55.7043Z" fill="#E4B441"/>
<path opacity="0.282" fill-rule="evenodd" clip-rule="evenodd" d="M66.804 56.3117C66.8499 56.3178 66.8789 56.3512 66.8891 56.413C66.8159 56.657 66.7028 56.8594 66.5488 57.0204C66.6135 56.7653 66.6985 56.5294 66.804 56.3117Z" fill="#E4B441"/>
<path opacity="0.97" fill-rule="evenodd" clip-rule="evenodd" d="M66.2095 57.3241C67.0605 57.6926 67.7708 58.3001 68.3412 59.1465C69.1249 61.3314 68.6704 63.0354 66.977 64.2594C66.8115 64.3414 66.641 64.3921 66.4653 64.4113C64.5705 64.7383 63.3199 63.8271 62.7135 61.6777C62.6264 58.8114 63.7918 57.3595 66.2095 57.3241Z" fill="#C29321"/>
<path opacity="0.225" fill-rule="evenodd" clip-rule="evenodd" d="M34.8298 57.4252C34.4887 58.0327 34.0624 58.5389 33.5508 58.9439C33.9487 58.4043 34.3751 57.8981 34.8298 57.4252Z" fill="#E4B441"/>
<path opacity="0.953" fill-rule="evenodd" clip-rule="evenodd" d="M22.8062 61.5765C22.8203 62.0837 22.8061 62.59 22.7635 63.0952C22.6546 63.4668 22.5551 63.8373 22.4651 64.2089C21.4867 65.8612 20.1792 66.3513 18.5427 65.677C16.8844 64.4944 16.4155 62.8238 17.1358 60.6653C17.9316 59.1344 19.0828 58.5442 20.5892 58.8935C21.7453 59.3045 22.4843 60.1985 22.8062 61.5765Z" fill="#C39320"/>
<path fill-rule="evenodd" clip-rule="evenodd" d="M65.2706 58.8428C66.8352 58.7608 67.589 59.6376 67.5302 61.4752C67.1678 62.7631 66.414 63.32 65.2706 63.1458C64.2502 62.6639 63.8097 61.7699 63.9489 60.4628C64.1779 59.668 64.6184 59.1284 65.2706 58.8428Z" fill="white"/>
<path fill-rule="evenodd" clip-rule="evenodd" d="M19.3096 60.1589C20.8746 60.0769 21.6278 60.9537 21.5692 62.7914C21.2065 64.0792 20.4533 64.6361 19.3096 64.4619C18.2893 63.98 17.8487 63.086 17.988 61.7789C18.2169 60.9841 18.6575 60.4445 19.3096 60.1589Z" fill="white"/>
<path opacity="0.235" fill-rule="evenodd" clip-rule="evenodd" d="M45.3164 60.6654C45.401 60.6482 45.4578 60.6816 45.4869 60.7667C45.3912 60.8942 45.3344 60.8598 45.3164 60.6654Z" fill="#E4B441"/>
<path opacity="0.19" fill-rule="evenodd" clip-rule="evenodd" d="M42.2915 61.627C42.0096 62.029 41.6969 62.4006 41.3535 62.7408C41.5809 62.2679 41.8935 61.8974 42.2915 61.627Z" fill="#E4B441"/>
<path opacity="0.098" fill-rule="evenodd" clip-rule="evenodd" d="M41.3939 62.6899C41.4144 62.9461 41.3293 63.1151 41.1387 63.1961C41.1906 63.0007 41.2756 62.8317 41.3939 62.6899Z" fill="#E4B441"/>
<path opacity="0.502" fill-rule="evenodd" clip-rule="evenodd" d="M58.7891 63.2976C58.8736 63.2804 58.9304 63.3138 58.9596 63.3988C58.8638 63.5264 58.8071 63.492 58.7891 63.2976Z" fill="#E4B441"/>
<path opacity="0.184" fill-rule="evenodd" clip-rule="evenodd" d="M41.138 63.1962C41.1413 63.4584 41.0563 63.6609 40.8828 63.8036C40.9247 63.5688 41.0097 63.3663 41.138 63.1962Z" fill="#8E8E8E"/>
<path opacity="0.012" fill-rule="evenodd" clip-rule="evenodd" d="M43.1007 64.4114C43.1069 64.5663 43.05 64.6675 42.9301 64.7151C42.9239 64.5602 42.9808 64.459 43.1007 64.4114Z" fill="#E4B441"/>
<path opacity="0.149" fill-rule="evenodd" clip-rule="evenodd" d="M46.4262 64.3101C46.5461 64.3577 46.603 64.4589 46.5968 64.6138C46.4769 64.5662 46.42 64.465 46.4262 64.3101Z" fill="#717171"/>
<path opacity="0.431" fill-rule="evenodd" clip-rule="evenodd" d="M42.9288 64.7151C42.8431 64.9217 42.758 65.1242 42.6736 65.3226C42.6337 65.03 42.7188 64.8275 42.9288 64.7151Z" fill="#606060"/>
<path opacity="0.249" fill-rule="evenodd" clip-rule="evenodd" d="M40.798 64.0063C40.5632 64.792 40.3358 65.5847 40.1158 66.3856C40.0872 66.4899 40.0303 66.5405 39.9453 66.5375C40.1642 65.6556 40.4484 64.8112 40.798 64.0063Z" fill="#E4B441"/>
<path opacity="0.137" fill-rule="evenodd" clip-rule="evenodd" d="M46.7656 64.9176C46.9675 65.1282 47.0809 65.3985 47.1059 65.7276C46.904 65.517 46.7906 65.2467 46.7656 64.9176Z" fill="#E4B441" fill-opacity="0.486275"/>
<path opacity="0.341" fill-rule="evenodd" clip-rule="evenodd" d="M49.4941 65.4239C49.6561 65.7306 49.7696 66.0688 49.8344 66.4363C49.7496 66.4394 49.6928 66.3887 49.6643 66.2845C49.5872 66.002 49.5305 65.7154 49.4941 65.4239Z" fill="#E4B441"/>
<path opacity="0.467" fill-rule="evenodd" clip-rule="evenodd" d="M49.8344 66.5374C49.8864 66.6275 49.9148 66.7287 49.9197 66.8411C49.7592 66.7682 49.7308 66.667 49.8344 66.5374Z" fill="#E4B441"/>
<path opacity="0.176" fill-rule="evenodd" clip-rule="evenodd" d="M47.3633 66.4363C47.5197 66.4991 47.6193 66.6348 47.6617 66.8413C47.721 67.0661 47.792 67.2858 47.8749 67.4994C47.8689 67.5764 47.8405 67.627 47.7896 67.6513C47.6475 67.2463 47.5054 66.8413 47.3633 66.4363Z" fill="#E4B441"/>
<path opacity="0.059" fill-rule="evenodd" clip-rule="evenodd" d="M65.9525 66.4364C65.8955 66.5711 65.8393 66.7068 65.7824 66.8414C65.6845 66.7594 65.6845 66.6582 65.7824 66.5377C65.8215 66.4567 65.8776 66.4233 65.9525 66.4364Z" fill="#E4B441"/>
<path opacity="0.478" fill-rule="evenodd" clip-rule="evenodd" d="M42.4177 66.6389C42.4129 66.7513 42.3845 66.8525 42.3325 66.9427C42.2289 66.8131 42.2573 66.7118 42.4177 66.6389Z" fill="#E4B441"/>
<path opacity="0.929" fill-rule="evenodd" clip-rule="evenodd" d="M188.626 66.0952C188.864 66.0672 189.078 66.1342 189.269 66.2952C189.327 69.528 189.327 72.7617 189.269 75.9945C189.055 76.1925 188.812 76.2425 188.541 76.1445C188.438 76.0545 188.367 75.9375 188.326 75.7945C188.269 72.7277 188.269 69.662 188.326 66.5952C188.349 66.3542 188.448 66.1882 188.626 66.0952Z" fill="#E4B441"/>
<path opacity="0.922" fill-rule="evenodd" clip-rule="evenodd" d="M230.544 66.0952C230.845 66.0332 231.089 66.1332 231.273 66.3952C231.301 67.3621 231.331 68.328 231.359 69.295C232.154 68.459 233.083 68.175 234.145 68.445C235.579 68.851 236.422 69.9009 236.674 71.5948C236.849 74.4226 235.735 76.0225 233.33 76.3944C232.538 76.3484 231.881 75.9825 231.359 75.2945C231.339 76.2385 230.996 76.4714 230.33 75.9945C230.273 72.7947 230.273 69.5949 230.33 66.3952C230.39 66.2762 230.461 66.1762 230.544 66.0952ZM232.945 69.4949C234.813 69.4579 235.713 70.5249 235.645 72.6947C235.366 74.4536 234.466 75.2705 232.945 75.1445C232.109 74.9365 231.581 74.3526 231.359 73.3947C231.261 72.4777 231.319 71.5778 231.53 70.6949C231.893 70.1089 232.364 69.7089 232.945 69.4949Z" fill="#E4B441"/>
<path opacity="0.569" fill-rule="evenodd" clip-rule="evenodd" d="M63.5647 66.1324C63.6154 66.1567 63.6438 66.2074 63.6497 66.2843C63.5874 66.5597 63.5023 66.8128 63.3945 67.0437C63.4163 66.7298 63.473 66.4261 63.5647 66.1324Z" fill="#E4B441"/>
<path opacity="0.918" fill-rule="evenodd" clip-rule="evenodd" d="M166.253 66.1951C166.551 66.1321 166.793 66.2321 166.982 66.4951C167.025 67.1271 167.039 67.761 167.025 68.395C167.512 68.378 167.997 68.395 168.482 68.445C168.8 68.608 168.9 68.8909 168.782 69.2949C168.718 69.3579 168.647 69.4079 168.568 69.4449C168.054 69.4949 167.54 69.5119 167.025 69.4949C166.985 71.2018 167.028 72.9017 167.153 74.5945C167.388 75.0865 167.746 75.2695 168.225 75.1445C168.582 74.8525 168.911 74.8695 169.211 75.1945C169.307 75.5405 169.235 75.8234 168.996 76.0444C168.242 76.3914 167.499 76.3584 166.768 75.9444C166.332 75.5125 166.09 74.9625 166.039 74.2946C165.996 72.6947 165.982 71.0948 165.996 69.4949C165.652 69.5119 165.309 69.4949 164.967 69.4449C164.721 69.2779 164.649 69.0279 164.753 68.695C164.83 68.575 164.931 68.492 165.053 68.445C165.366 68.395 165.681 68.378 165.996 68.395C165.982 67.761 165.996 67.1271 166.039 66.4951C166.099 66.3761 166.17 66.2761 166.253 66.1951Z" fill="#E4B441"/>
<path opacity="0.263" fill-rule="evenodd" clip-rule="evenodd" d="M39.9446 66.6389C39.9954 66.6632 40.0237 66.7138 40.0297 66.7908C39.986 67.1077 39.8725 67.3608 39.6895 67.5501C39.7614 67.2413 39.8465 66.9376 39.9446 66.6389Z" fill="#6A6A6A"/>
<path opacity="0.94" fill-rule="evenodd" clip-rule="evenodd" d="M205.255 66.3953C205.556 66.3333 205.799 66.4333 205.983 66.6953C206.026 69.4951 206.041 72.2949 206.026 75.0947C207.712 75.0777 209.398 75.0947 211.084 75.1447C211.447 75.5237 211.419 75.8576 210.998 76.1446C209.084 76.2116 207.169 76.2116 205.255 76.1446C205.185 76.1136 205.129 76.0636 205.083 75.9946C204.984 72.8989 204.969 69.7991 205.04 66.6953C205.1 66.5763 205.172 66.4763 205.255 66.3953Z" fill="#E4B441"/>
<path opacity="0.915" fill-rule="evenodd" clip-rule="evenodd" d="M125.534 66.4951C126.62 66.4781 127.706 66.4951 128.791 66.5451C130.706 66.7781 131.864 67.995 132.263 70.1948C132.49 71.6447 132.29 73.0106 131.663 74.2945C131.042 75.3825 130.171 75.9984 129.049 76.1444C127.849 76.2114 126.648 76.2114 125.448 76.1444C125.295 76.0664 125.166 75.9494 125.063 75.7944C125.005 72.8276 125.005 69.8619 125.063 66.8951C125.191 66.6981 125.348 66.5651 125.534 66.4951ZM126.048 67.595C127.02 67.578 127.992 67.595 128.963 67.645C130.074 67.941 130.802 68.7239 131.149 69.9948C131.453 71.2458 131.338 72.4457 130.806 73.5946C130.358 74.3635 129.745 74.8475 128.963 75.0445C127.992 75.0945 127.02 75.1115 126.048 75.0945C126.048 72.5947 126.048 70.0948 126.048 67.595Z" fill="#E4B441"/>
<path opacity="0.38" fill-rule="evenodd" clip-rule="evenodd" d="M49.921 66.9424C49.9777 67.1449 50.0344 67.3474 50.0911 67.5499C49.9378 67.4669 49.8528 67.315 49.8359 67.0943C49.8419 67.0174 49.8702 66.9667 49.921 66.9424Z" fill="#E4B441"/>
<path opacity="0.733" fill-rule="evenodd" clip-rule="evenodd" d="M47.7891 67.7527C48.0158 67.855 48.0726 68.0241 47.9592 68.259C47.9025 68.0899 47.8458 67.9218 47.7891 67.7527Z" fill="#E4B441"/>
<path opacity="0.624" fill-rule="evenodd" clip-rule="evenodd" d="M63.3937 67.0438C63.2405 67.8122 62.9563 68.4875 62.541 69.0687C62.8282 68.3863 63.1125 67.712 63.3937 67.0438Z" fill="#E4B441"/>
<path opacity="0.031" fill-rule="evenodd" clip-rule="evenodd" d="M65.6983 66.9423C65.4101 67.97 65.0409 68.949 64.5898 69.8785C64.9113 68.868 65.2805 67.889 65.6983 66.9423Z" fill="#E4B441"/>
<path opacity="0.957" fill-rule="evenodd" clip-rule="evenodd" d="M29.7988 73.9285C29.1218 75.0057 28.2123 75.5454 27.0702 75.5484C25.6384 75.432 24.7147 74.5542 24.299 72.916C24.0044 71.127 24.5018 69.7602 25.7912 68.8155C27.2266 68.1058 28.4914 68.3923 29.5856 69.6761C30.1909 70.641 30.3899 71.7203 30.1825 72.916C30.1112 73.2896 29.9833 73.6268 29.7988 73.9285Z" fill="#C39320"/>
<path opacity="0.231" fill-rule="evenodd" clip-rule="evenodd" d="M39.6037 68.0561C39.698 68.1898 39.698 68.3416 39.6037 68.5117C39.5751 68.616 39.5184 68.6666 39.4336 68.6636C39.4903 68.4611 39.547 68.2586 39.6037 68.0561Z" fill="#E4B441"/>
<path opacity="0.212" fill-rule="evenodd" clip-rule="evenodd" d="M47.9609 68.36C48.1359 68.4157 48.1643 68.5169 48.0462 68.6638C48.0413 68.5514 48.013 68.4501 47.9609 68.36Z" fill="#E4B441"/>
<path opacity="0.075" fill-rule="evenodd" clip-rule="evenodd" d="M50.2628 68.4611C50.3342 68.4955 50.3627 68.5633 50.348 68.6636C50.184 68.6423 50.1556 68.5745 50.2628 68.4611Z" fill="#E4B441"/>
<path opacity="0.216" fill-rule="evenodd" clip-rule="evenodd" d="M48.0449 68.7651C48.2199 68.8208 48.2483 68.922 48.1302 69.0688C48.1253 68.9565 48.0969 68.8552 48.0449 68.7651Z" fill="#E4B441"/>
<path opacity="0.925" fill-rule="evenodd" clip-rule="evenodd" d="M141.651 68.2951C144.154 68.3311 145.397 69.798 145.379 72.6948C145.308 72.7778 145.236 72.8618 145.165 72.9448C143.365 72.9948 141.565 73.0118 139.765 72.9948C140.114 74.5817 140.999 75.2986 142.422 75.1446C142.942 75.0746 143.4 74.8407 143.794 74.4447C144.393 74.2437 144.635 74.4937 144.522 75.1946C143.688 76.0926 142.702 76.4425 141.565 76.2446C139.696 75.8466 138.725 74.5307 138.65 72.2948C138.746 70.018 139.746 68.6841 141.651 68.2951ZM141.479 69.495C143.138 69.2661 144.109 70.099 144.394 71.9949C142.822 71.9949 141.25 71.9949 139.679 71.9949C139.819 70.7 140.419 69.866 141.479 69.495Z" fill="#E4B441"/>
<path opacity="0.913" fill-rule="evenodd" clip-rule="evenodd" d="M154.938 68.2952C156.473 68.0622 157.602 68.7292 158.324 70.2951C158.394 70.524 158.452 70.757 158.495 70.995C158.553 72.6619 158.553 74.3278 158.495 75.9947C158.139 76.4146 157.825 76.3816 157.552 75.8947C157.549 74.2218 157.492 72.5549 157.381 70.895C156.669 69.3911 155.655 69.0412 154.338 69.8451C153.805 70.2381 153.448 70.788 153.266 71.495C153.238 72.9619 153.209 74.4278 153.181 75.8947C152.927 76.3146 152.612 76.3816 152.238 76.0946C152.097 73.6678 152.069 71.235 152.152 68.7952C152.369 68.3662 152.669 68.2832 153.052 68.5452C153.12 68.8862 153.163 69.2361 153.181 69.5951C153.637 68.9202 154.223 68.4872 154.938 68.2952Z" fill="#E4B441"/>
<path opacity="0.506" fill-rule="evenodd" clip-rule="evenodd" d="M48.1309 69.1698C48.3058 69.2255 48.3342 69.3267 48.2161 69.4735C48.2113 69.3612 48.1829 69.2599 48.1309 69.1698Z" fill="#E4B441"/>
<path opacity="0.927" fill-rule="evenodd" clip-rule="evenodd" d="M177.568 68.3951C178.308 68.3171 179.023 68.4341 179.711 68.7451C179.921 68.8911 180.107 69.0741 180.268 69.2951C180.348 68.4431 180.69 68.2432 181.296 68.6951C181.354 71.1279 181.354 73.5618 181.296 75.9946C180.635 76.4566 180.292 76.2236 180.268 75.2946C179.025 76.6095 177.696 76.7265 176.282 75.6446C174.969 74.2467 174.613 72.5638 175.21 70.595C175.701 69.4191 176.487 68.6861 177.568 68.3951ZM177.91 69.4951C179.07 69.3951 179.856 69.961 180.268 71.1949C180.366 72.1449 180.309 73.0788 180.096 73.9947C179.321 75.2406 178.335 75.5236 177.139 74.8447C176.359 74.2247 175.959 73.3588 175.939 72.2449C176.047 70.769 176.704 69.853 177.91 69.4951Z" fill="#E4B441"/>
<path opacity="0.931" fill-rule="evenodd" clip-rule="evenodd" d="M219.399 68.3952C220.21 68.2932 220.981 68.4432 221.713 68.8452C221.842 68.9952 221.97 69.1452 222.099 69.2952C222.089 68.7862 222.288 68.4862 222.699 68.3952C222.869 68.4442 223.012 68.5442 223.128 68.6952C223.185 71.128 223.185 73.5618 223.128 75.9947C222.881 76.2887 222.609 76.3386 222.313 76.1447C222.199 75.8787 222.127 75.5957 222.099 75.2947C221.334 76.2517 220.405 76.5686 219.313 76.2447C218.007 75.8207 217.192 74.8378 216.87 73.2949C216.505 70.779 217.347 69.1452 219.399 68.3952ZM219.742 69.4951C220.883 69.3522 221.669 69.8851 222.099 71.095C222.177 72.003 222.149 72.9029 222.013 73.7948C221.341 75.1117 220.384 75.4947 219.142 74.9447C218.061 74.1368 217.646 72.9869 217.899 71.495C218.203 70.4231 218.817 69.7561 219.742 69.4951Z" fill="#E4B441"/>
<path opacity="0.357" fill-rule="evenodd" clip-rule="evenodd" d="M48.2168 69.5748C48.3918 69.6305 48.4202 69.7318 48.3021 69.8786C48.2501 69.7885 48.2217 69.6872 48.2168 69.5748Z" fill="#E4B441"/>
<path opacity="0.082" fill-rule="evenodd" clip-rule="evenodd" d="M50.5167 69.5748C50.5881 69.6093 50.6166 69.6771 50.6019 69.7773C50.4379 69.7561 50.4095 69.6882 50.5167 69.5748Z" fill="#E4B441"/>
<path fill-rule="evenodd" clip-rule="evenodd" d="M26.7296 69.8788C28.2945 69.7968 29.0477 70.6736 28.9892 72.5112C28.6264 73.7991 27.8733 74.3559 26.7296 74.1818C25.7092 73.6998 25.2686 72.8058 25.4079 71.4987C25.6368 70.704 26.0774 70.1643 26.7296 69.8788Z" fill="white"/>
<path opacity="0.463" fill-rule="evenodd" clip-rule="evenodd" d="M48.3008 69.9799C48.3934 69.9921 48.4503 70.0599 48.4713 70.1824C48.4677 70.2756 48.4393 70.3424 48.386 70.3849C48.3577 70.2502 48.3292 70.1146 48.3008 69.9799Z" fill="#E4B441"/>
<path opacity="0.165" fill-rule="evenodd" clip-rule="evenodd" d="M62.5415 69.0686C62.3389 69.8533 62.0263 70.562 61.6035 71.1948C61.8513 70.4375 62.1639 69.7288 62.5415 69.0686Z" fill="#E4B441"/>
<path opacity="0.38" fill-rule="evenodd" clip-rule="evenodd" d="M48.4725 70.891C48.6365 70.9123 48.6649 70.9801 48.5578 71.0935C48.4863 71.0591 48.4578 70.9913 48.4725 70.891Z" fill="#E4B441" fill-opacity="0.486275"/>
<path opacity="0.455" fill-rule="evenodd" clip-rule="evenodd" d="M50.6028 69.8786C50.7297 70.313 50.8435 70.7514 50.9439 71.1948C50.8219 71.1564 50.7509 71.0551 50.7307 70.8911C50.6769 70.5985 50.6059 70.311 50.5176 70.0305C50.5235 69.9536 50.5519 69.9029 50.6028 69.8786Z" fill="#E4B441"/>
<path opacity="0.388" fill-rule="evenodd" clip-rule="evenodd" d="M48.5565 71.2959C48.7205 71.3172 48.7489 71.385 48.6417 71.4984C48.5703 71.464 48.5418 71.3962 48.5565 71.2959Z" fill="#E4B441"/>
<path opacity="0.067" fill-rule="evenodd" clip-rule="evenodd" d="M50.9437 71.3972C51.0125 71.5521 51.0692 71.7202 51.1138 71.9034C51.029 71.9065 50.9722 71.8559 50.9437 71.7516C50.8573 71.6129 50.8573 71.4944 50.9437 71.3972Z" fill="#E4B441"/>
<path opacity="0.031" fill-rule="evenodd" clip-rule="evenodd" d="M63.9914 71.2961C63.8261 71.7608 63.6271 72.1992 63.3945 72.6123C63.4837 72.0959 63.6827 71.6575 63.9914 71.2961Z" fill="#636363"/>
<path opacity="0.392" fill-rule="evenodd" clip-rule="evenodd" d="M48.6424 71.7009C48.8065 71.7221 48.8349 71.79 48.7277 71.9034C48.6562 71.8689 48.6277 71.8011 48.6424 71.7009Z" fill="#E4B441"/>
<path opacity="0.051" fill-rule="evenodd" clip-rule="evenodd" d="M51.1136 72.1062C51.1824 72.2611 51.2391 72.4292 51.2837 72.6124C51.1989 72.6155 51.1422 72.5648 51.1136 72.4606C51.0272 72.3219 51.0272 72.2034 51.1136 72.1062Z" fill="#E4B441"/>
<path opacity="0.145" fill-rule="evenodd" clip-rule="evenodd" d="M48.7266 72.1062C48.8798 72.1892 48.9649 72.3411 48.9817 72.5618C48.9758 72.6388 48.9475 72.6894 48.8967 72.7137C48.84 72.5112 48.7833 72.3087 48.7266 72.1062Z" fill="#E4B441"/>
<path opacity="0.043" fill-rule="evenodd" clip-rule="evenodd" d="M51.2862 72.7136C51.2911 72.826 51.3195 72.9273 51.3715 73.0174C51.1965 72.9617 51.1681 72.8604 51.2862 72.7136Z" fill="#E4B441"/>
<path opacity="0.255" fill-rule="evenodd" clip-rule="evenodd" d="M63.3949 72.6122C63.3027 72.8653 63.1893 73.1022 63.0547 73.3209C63.0618 72.9989 63.1752 72.762 63.3949 72.6122Z" fill="#E4B441"/>
<path opacity="0.831" fill-rule="evenodd" clip-rule="evenodd" d="M48.9824 73.2196C49.2092 73.3219 49.2659 73.4909 49.1525 73.7258C49.0958 73.5568 49.0392 73.3887 48.9824 73.2196Z" fill="#E4B441"/>
<path opacity="0.035" fill-rule="evenodd" clip-rule="evenodd" d="M51.3702 73.1186C51.427 73.3211 51.4836 73.5235 51.5403 73.726C51.3871 73.643 51.302 73.4911 51.2852 73.2704C51.2911 73.1935 51.3194 73.1429 51.3702 73.1186Z" fill="#E4B441"/>
<path opacity="0.184" fill-rule="evenodd" clip-rule="evenodd" d="M62.9672 73.5235C62.9023 73.7129 62.8172 73.8819 62.712 74.0298C62.6915 73.7736 62.7765 73.6045 62.9672 73.5235Z" fill="#E4B441"/>
<path opacity="0.435" fill-rule="evenodd" clip-rule="evenodd" d="M60.4935 73.6248C60.4722 73.8445 60.3871 74.0136 60.2383 74.131C60.2595 73.9113 60.3446 73.7423 60.4935 73.6248Z" fill="#E4B441"/>
<path opacity="0.167" fill-rule="evenodd" clip-rule="evenodd" d="M62.713 74.03C62.6761 74.1525 62.6192 74.2538 62.5424 74.3338C62.5241 74.1637 62.581 74.0624 62.713 74.03Z" fill="#E4B441"/>
<path opacity="0.035" fill-rule="evenodd" clip-rule="evenodd" d="M51.5401 73.8272C51.5969 74.0297 51.6535 74.2322 51.7103 74.4347C51.557 74.3516 51.4719 74.1998 51.4551 73.979C51.461 73.9021 51.4894 73.8515 51.5401 73.8272Z" fill="#E4B441"/>
<path opacity="0.451" fill-rule="evenodd" clip-rule="evenodd" d="M60.2376 74.1309C60.2163 74.3506 60.1313 74.5197 59.9824 74.6372C60.0037 74.4174 60.0887 74.2484 60.2376 74.1309Z" fill="#E4B441"/>
<path opacity="0.251" fill-rule="evenodd" clip-rule="evenodd" d="M62.4571 74.536C62.4203 74.6585 62.3634 74.7598 62.2866 74.8398C62.2682 74.6697 62.3251 74.5684 62.4571 74.536Z" fill="#878787"/>
<path opacity="0.416" fill-rule="evenodd" clip-rule="evenodd" d="M29.8841 74.3334C29.9744 74.6493 30.0881 74.953 30.2252 75.2446C30.001 75.0532 29.8589 74.7829 29.7988 74.4346C29.8094 74.3729 29.8378 74.3394 29.8841 74.3334Z" fill="#E4B441"/>
<path opacity="0.494" fill-rule="evenodd" clip-rule="evenodd" d="M59.9817 74.6372C59.9605 74.8569 59.8754 75.026 59.7266 75.1434C59.7478 74.9237 59.8329 74.7546 59.9817 74.6372Z" fill="#E4B441"/>
<path opacity="0.031" fill-rule="evenodd" clip-rule="evenodd" d="M51.712 74.536C51.7688 74.7385 51.8254 74.941 51.8821 75.1435C51.7289 75.0605 51.6438 74.9086 51.627 74.6879C51.6329 74.611 51.6612 74.5603 51.712 74.536Z" fill="#E4B441"/>
<path opacity="0.092" fill-rule="evenodd" clip-rule="evenodd" d="M30.2241 75.2446C30.3009 75.3246 30.3578 75.4258 30.3946 75.5483C30.2626 75.5159 30.2057 75.4147 30.2241 75.2446Z" fill="#E4B441"/>
<path opacity="0.753" fill-rule="evenodd" clip-rule="evenodd" d="M37.8978 75.3458C37.9262 75.6485 37.8411 75.8844 37.6426 76.0545C37.6796 75.7852 37.7646 75.5493 37.8978 75.3458Z" fill="#545454"/>
<path opacity="0.027" fill-rule="evenodd" clip-rule="evenodd" d="M51.8819 75.2446C51.9387 75.4471 51.9953 75.6496 52.0521 75.852C51.8988 75.769 51.8137 75.6172 51.7969 75.3964C51.8028 75.3195 51.8312 75.2689 51.8819 75.2446Z" fill="#E4B441"/>
<path opacity="0.376" fill-rule="evenodd" clip-rule="evenodd" d="M30.3963 75.5486C30.4804 75.6803 30.5654 75.8149 30.6515 75.9536C30.4464 75.9344 30.3613 75.7987 30.3963 75.5486Z" fill="#8A8A8A"/>
<path opacity="0.069" fill-rule="evenodd" clip-rule="evenodd" d="M30.6511 75.9533C30.7841 76.0991 30.8975 76.2682 30.9914 76.4595C30.7535 76.412 30.64 76.2439 30.6511 75.9533Z" fill="#727272"/>
<path opacity="0.039" fill-rule="evenodd" clip-rule="evenodd" d="M52.0538 75.9534C52.1272 76.1478 52.1839 76.3503 52.2239 76.5609C52.0707 76.4779 51.9856 76.326 51.9688 76.1053C51.9747 76.0284 52.003 75.9777 52.0538 75.9534Z" fill="#E4B441"/>
<path opacity="0.141" fill-rule="evenodd" clip-rule="evenodd" d="M49.752 75.6497C49.9023 75.8815 49.9873 76.1519 50.0071 76.4597C49.8568 76.2278 49.7718 75.9575 49.752 75.6497Z" fill="#E4B441"/>
<path opacity="0.01" fill-rule="evenodd" clip-rule="evenodd" d="M52.2237 76.6622C52.2956 76.7806 52.3523 76.9153 52.3939 77.0672C52.256 77.0378 52.1709 76.9365 52.1387 76.7634C52.1492 76.7017 52.1775 76.6682 52.2237 76.6622Z" fill="#E4B441" fill-opacity="0.933333"/>
<path opacity="0.431" fill-rule="evenodd" clip-rule="evenodd" d="M31.078 76.561C31.162 76.6926 31.2471 76.8273 31.3332 76.966C31.128 76.9468 31.0429 76.8111 31.078 76.561Z" fill="#848484"/>
<path opacity="0.557" fill-rule="evenodd" clip-rule="evenodd" d="M50.0059 76.6622C50.1623 76.7249 50.2618 76.8606 50.3043 77.0672C50.4294 77.3972 50.5288 77.7344 50.6027 78.0796C50.3723 77.6321 50.1732 77.1603 50.0059 76.6622Z" fill="#E4B441"/>
<path opacity="0.041" fill-rule="evenodd" clip-rule="evenodd" d="M52.3939 77.1683C52.4735 77.2766 52.502 77.4113 52.4792 77.5733C52.3395 77.4518 52.3111 77.3161 52.3939 77.1683Z" fill="#E4B441"/>
<path opacity="0.494" fill-rule="evenodd" clip-rule="evenodd" d="M31.4187 77.067C31.5369 77.2087 31.622 77.3778 31.6739 77.5732C31.4844 77.4821 31.3994 77.313 31.4187 77.067Z" fill="#E4B441"/>
<path opacity="0.082" fill-rule="evenodd" clip-rule="evenodd" d="M29.2876 77.7758C29.4075 77.8234 29.4643 77.9246 29.4581 78.0796C29.3382 78.032 29.2813 77.9307 29.2876 77.7758Z" fill="#E4B441"/>
<path opacity="0.51" fill-rule="evenodd" clip-rule="evenodd" d="M31.7598 77.6748C31.9373 77.7841 32.0507 77.9532 32.1 78.181C31.9225 78.0717 31.8091 77.9026 31.7598 77.6748Z" fill="#E4B441"/>
<path opacity="0.208" fill-rule="evenodd" clip-rule="evenodd" d="M38.837 78.8895C38.8553 79.0596 38.7985 79.1609 38.6665 79.1933C38.6603 79.0384 38.7171 78.9371 38.837 78.8895Z" fill="#717171"/>
<path opacity="0.059" fill-rule="evenodd" clip-rule="evenodd" d="M30.3105 79.3957C30.6232 79.6995 30.9074 80.0366 31.1632 80.4082C30.7938 80.1723 30.5095 79.8341 30.3105 79.3957Z" fill="#6A6A6A"/>
<path opacity="0.184" fill-rule="evenodd" clip-rule="evenodd" d="M38.4959 79.4969C38.4822 79.6639 38.4254 79.7996 38.3253 79.9019C38.3022 79.7115 38.3591 79.5769 38.4959 79.4969Z" fill="#E4B441"/>
<path opacity="0.175" fill-rule="evenodd" clip-rule="evenodd" d="M38.2397 79.9021C37.9331 80.5703 37.5068 81.1099 36.9607 81.522C36.9495 81.4471 36.9638 81.3793 37.0033 81.3195C37.4347 80.8578 37.8468 80.385 38.2397 79.9021Z" fill="#E4B441"/>
<path opacity="0.106" fill-rule="evenodd" clip-rule="evenodd" d="M58.6183 80.6106C58.3965 81.0429 58.1123 81.4145 57.7656 81.7243C57.9874 81.292 58.2716 80.9204 58.6183 80.6106Z" fill="#E4B441"/>
<path opacity="0.239" fill-rule="evenodd" clip-rule="evenodd" d="M52.2227 81.0156C52.4216 81.1847 52.5921 81.3872 52.7343 81.6231C52.4785 81.5218 52.3079 81.3193 52.2227 81.0156Z" fill="#A2A2A2"/>
<path opacity="0.078" fill-rule="evenodd" clip-rule="evenodd" d="M36.3638 82.0281C36.1364 82.1627 35.9091 82.2984 35.6816 82.4331C35.8239 82.1941 36.0228 82.026 36.2785 81.9268C36.3303 81.939 36.3587 81.9734 36.3638 82.0281Z" fill="#5E5E5E"/>
<path opacity="0.016" fill-rule="evenodd" clip-rule="evenodd" d="M57.5946 81.8259C57.3284 82.1368 57.0157 82.3727 56.6567 82.5347C56.6455 82.4456 56.6739 82.3787 56.7419 82.3322C57.029 82.157 57.3132 81.9889 57.5946 81.8259Z" fill="#E4B441"/>
<path opacity="0.01" fill-rule="evenodd" clip-rule="evenodd" d="M34.0625 82.6356C34.3752 82.501 34.6878 82.501 35.0005 82.6356C34.685 82.7632 34.3724 82.7632 34.0625 82.6356Z" fill="#E4B441"/>
</svg>
