<svg width="40" height="40" viewBox="0 0 40 40" fill="none" xmlns="http://www.w3.org/2000/svg">
<rect width="40" height="40" rx="20" fill="#4B5563" fill-opacity="0.5"/>
<path d="M14.1671 21.9445C13.6324 21.9445 13.1746 21.7541 12.7938 21.3733C12.413 20.9925 12.2227 20.5347 12.2227 20C12.2227 19.4653 12.413 19.0075 12.7938 18.6267C13.1746 18.246 13.6324 18.0556 14.1671 18.0556C14.7018 18.0556 15.1596 18.246 15.5404 18.6267C15.9212 19.0075 16.1115 19.4653 16.1115 20C16.1115 20.5347 15.9212 20.9925 15.5404 21.3733C15.1596 21.7541 14.7018 21.9445 14.1671 21.9445ZM20.0004 21.9445C19.4657 21.9445 19.008 21.7541 18.6272 21.3733C18.2464 20.9925 18.056 20.5347 18.056 20C18.056 19.4653 18.2464 19.0075 18.6272 18.6267C19.008 18.246 19.4657 18.0556 20.0004 18.0556C20.5352 18.0556 20.9929 18.246 21.3737 18.6267C21.7545 19.0075 21.9449 19.4653 21.9449 20C21.9449 20.5347 21.7545 20.9925 21.3737 21.3733C20.9929 21.7541 20.5352 21.9445 20.0004 21.9445ZM25.8338 21.9445C25.299 21.9445 24.8413 21.7541 24.4605 21.3733C24.0797 20.9925 23.8893 20.5347 23.8893 20C23.8893 19.4653 24.0797 19.0075 24.4605 18.6267C24.8413 18.246 25.299 18.0556 25.8338 18.0556C26.3685 18.0556 26.8262 18.246 27.207 18.6267C27.5878 19.0075 27.7782 19.4653 27.7782 20C27.7782 20.5347 27.5878 20.9925 27.207 21.3733C26.8262 21.7541 26.3685 21.9445 25.8338 21.9445Z" fill="#9CA3AF"/>
</svg>
