<svg width="361" height="325" viewBox="0 0 361 325" fill="none" xmlns="http://www.w3.org/2000/svg">
<g filter="url(#filter0_f_56_1415)">
<rect x="84.5" y="42.5" width="192" height="192" rx="96" fill="#D8B04B" fill-opacity="0.3"/>
</g>
<mask id="path-2-inside-1_56_1415" fill="white">
<path d="M84.5 138.5C84.5 85.4807 127.481 42.5 180.5 42.5C233.519 42.5 276.5 85.4807 276.5 138.5C276.5 191.519 233.519 234.5 180.5 234.5C127.481 234.5 84.5 191.519 84.5 138.5Z"/>
</mask>
<path d="M84.5 138.5C84.5 85.4807 127.481 42.5 180.5 42.5C233.519 42.5 276.5 85.4807 276.5 138.5C276.5 191.519 233.519 234.5 180.5 234.5C127.481 234.5 84.5 191.519 84.5 138.5Z" fill="black" fill-opacity="0.2"/>
<path d="M180.5 234.5V232.5C128.585 232.5 86.5 190.415 86.5 138.5H84.5H82.5C82.5 192.624 126.376 236.5 180.5 236.5V234.5ZM276.5 138.5H274.5C274.5 190.415 232.415 232.5 180.5 232.5V234.5V236.5C234.624 236.5 278.5 192.624 278.5 138.5H276.5ZM180.5 42.5V44.5C232.415 44.5 274.5 86.5852 274.5 138.5H276.5H278.5C278.5 84.3761 234.624 40.5 180.5 40.5V42.5ZM180.5 42.5V40.5C126.376 40.5 82.5 84.3761 82.5 138.5H84.5H86.5C86.5 86.5852 128.585 44.5 180.5 44.5V42.5Z" fill="#D8B04B" fill-opacity="0.3" mask="url(#path-2-inside-1_56_1415)"/>
<path d="M158.5 170.5C152.433 170.5 147.25 168.4 142.95 164.2C138.65 160 136.5 154.867 136.5 148.8C136.5 143.6 138.067 138.967 141.2 134.9C144.333 130.833 148.433 128.233 153.5 127.1C155.167 120.967 158.5 116 163.5 112.2C168.5 108.4 174.167 106.5 180.5 106.5C188.3 106.5 194.917 109.217 200.35 114.65C205.783 120.083 208.5 126.7 208.5 134.5C213.1 135.033 216.917 137.017 219.95 140.45C222.983 143.883 224.5 147.9 224.5 152.5C224.5 157.5 222.75 161.75 219.25 165.25C215.75 168.75 211.5 170.5 206.5 170.5H184.5C182.3 170.5 180.417 169.717 178.85 168.15C177.283 166.583 176.5 164.7 176.5 162.5V141.9L170.1 148.1L164.5 142.5L180.5 126.5L196.5 142.5L190.9 148.1L184.5 141.9V162.5H206.5C209.3 162.5 211.667 161.533 213.6 159.6C215.533 157.667 216.5 155.3 216.5 152.5C216.5 149.7 215.533 147.333 213.6 145.4C211.667 143.467 209.3 142.5 206.5 142.5H200.5V134.5C200.5 128.967 198.55 124.25 194.65 120.35C190.75 116.45 186.033 114.5 180.5 114.5C174.967 114.5 170.25 116.45 166.35 120.35C162.45 124.25 160.5 128.967 160.5 134.5H158.5C154.633 134.5 151.333 135.867 148.6 138.6C145.867 141.333 144.5 144.633 144.5 148.5C144.5 152.367 145.867 155.667 148.6 158.4C151.333 161.133 154.633 162.5 158.5 162.5H168.5V170.5H158.5Z" fill="#D7AF4A"/>
<defs>
<filter id="filter0_f_56_1415" x="44.5" y="2.5" width="272" height="272" filterUnits="userSpaceOnUse" color-interpolation-filters="sRGB">
<feFlood flood-opacity="0" result="BackgroundImageFix"/>
<feBlend mode="normal" in="SourceGraphic" in2="BackgroundImageFix" result="shape"/>
<feGaussianBlur stdDeviation="20" result="effect1_foregroundBlur_56_1415"/>
</filter>
</defs>
</svg>
